<svg width="25" height="24" viewBox="0 0 25 24" fill="none" xmlns="http://www.w3.org/2000/svg">
<path fill-rule="evenodd" clip-rule="evenodd" d="M20.1953 2H8.19531C7.09531 2 6.19531 2.9 6.19531 4V16C6.19531 17.1 7.09531 18 8.19531 18H20.1953C21.2953 18 22.1953 17.1 22.1953 16V4C22.1953 2.9 21.2953 2 20.1953 2ZM3.19531 6C2.64531 6 2.19531 6.45 2.19531 7V20C2.19531 21.1 3.09531 22 4.19531 22H17.1953C17.7453 22 18.1953 21.55 18.1953 21C18.1953 20.45 17.7453 20 17.1953 20H5.19531C4.64531 20 4.19531 19.55 4.19531 19V7C4.19531 6.45 3.74531 6 3.19531 6ZM15.1953 11H18.1953C18.7453 11 19.1953 10.55 19.1953 10C19.1953 9.45 18.7453 9 18.1953 9H15.1953V6C15.1953 5.45 14.7453 5 14.1953 5C13.6453 5 13.1953 5.45 13.1953 6V9H10.1953C9.64531 9 9.19531 9.45 9.19531 10C9.19531 10.55 9.64531 11 10.1953 11H13.1953V14C13.1953 14.55 13.6453 15 14.1953 15C14.7453 15 15.1953 14.55 15.1953 14V11Z" fill="#09101D"/>
</svg>
