<svg width="21" height="20" viewBox="0 0 21 20" fill="none" xmlns="http://www.w3.org/2000/svg">
<path fill-rule="evenodd" clip-rule="evenodd" d="M2.16675 5C2.16675 4.33696 2.43014 3.70107 2.89898 3.23223C3.36782 2.76339 4.00371 2.5 4.66675 2.5H16.3334C16.9965 2.5 17.6323 2.76339 18.1012 3.23223C18.57 3.70107 18.8334 4.33696 18.8334 5V15C18.8334 15.663 18.57 16.2989 18.1012 16.7678C17.6323 17.2366 16.9965 17.5 16.3334 17.5H4.66675C4.00371 17.5 3.36782 17.2366 2.89898 16.7678C2.43014 16.2989 2.16675 15.663 2.16675 15V5ZM6.33342 5.83333C6.1124 5.83333 5.90044 5.92113 5.74416 6.07741C5.58788 6.23369 5.50008 6.44565 5.50008 6.66667V10C5.50008 10.221 5.58788 10.433 5.74416 10.5893C5.90044 10.7455 6.1124 10.8333 6.33342 10.8333H9.66675C9.88776 10.8333 10.0997 10.7455 10.256 10.5893C10.4123 10.433 10.5001 10.221 10.5001 10V6.66667C10.5001 6.44565 10.4123 6.23369 10.256 6.07741C10.0997 5.92113 9.88776 5.83333 9.66675 5.83333H6.33342ZM7.16675 9.16667V7.5H8.83342V9.16667H7.16675ZM13.0001 5.83333C12.7791 5.83333 12.5671 5.92113 12.4108 6.07741C12.2545 6.23369 12.1667 6.44565 12.1667 6.66667C12.1667 6.88768 12.2545 7.09964 12.4108 7.25592C12.5671 7.4122 12.7791 7.5 13.0001 7.5H14.6667C14.8878 7.5 15.0997 7.4122 15.256 7.25592C15.4123 7.09964 15.5001 6.88768 15.5001 6.66667C15.5001 6.44565 15.4123 6.23369 15.256 6.07741C15.0997 5.92113 14.8878 5.83333 14.6667 5.83333H13.0001ZM13.0001 9.16667C12.7791 9.16667 12.5671 9.25446 12.4108 9.41074C12.2545 9.56702 12.1667 9.77899 12.1667 10C12.1667 10.221 12.2545 10.433 12.4108 10.5893C12.5671 10.7455 12.7791 10.8333 13.0001 10.8333H14.6667C14.8878 10.8333 15.0997 10.7455 15.256 10.5893C15.4123 10.433 15.5001 10.221 15.5001 10C15.5001 9.77899 15.4123 9.56702 15.256 9.41074C15.0997 9.25446 14.8878 9.16667 14.6667 9.16667H13.0001ZM6.33342 12.5C6.1124 12.5 5.90044 12.5878 5.74416 12.7441C5.58788 12.9004 5.50008 13.1123 5.50008 13.3333C5.50008 13.5543 5.58788 13.7663 5.74416 13.9226C5.90044 14.0789 6.1124 14.1667 6.33342 14.1667H14.6667C14.8878 14.1667 15.0997 14.0789 15.256 13.9226C15.4123 13.7663 15.5001 13.5543 15.5001 13.3333C15.5001 13.1123 15.4123 12.9004 15.256 12.7441C15.0997 12.5878 14.8878 12.5 14.6667 12.5H6.33342Z" fill="#5F5F5F"/>
</svg>
