<svg width="31" height="30" viewBox="0 0 31 30" fill="none" xmlns="http://www.w3.org/2000/svg">
<path fill-rule="evenodd" clip-rule="evenodd" d="M3.47147 7.5C3.47147 6.50544 3.86655 5.55161 4.56982 4.84835C5.27308 4.14509 6.2269 3.75 7.22147 3.75H24.7215C25.716 3.75 26.6699 4.14509 27.3731 4.84835C28.0764 5.55161 28.4715 6.50544 28.4715 7.5V22.5C28.4715 23.4946 28.0764 24.4484 27.3731 25.1517C26.6699 25.8549 25.716 26.25 24.7215 26.25H7.22147C6.2269 26.25 5.27308 25.8549 4.56982 25.1517C3.86655 24.4484 3.47147 23.4946 3.47147 22.5V7.5ZM9.72147 8.75C9.38995 8.75 9.072 8.8817 8.83758 9.11612C8.60316 9.35054 8.47147 9.66848 8.47147 10V15C8.47147 15.3315 8.60316 15.6495 8.83758 15.8839C9.072 16.1183 9.38995 16.25 9.72147 16.25H14.7215C15.053 16.25 15.3709 16.1183 15.6053 15.8839C15.8398 15.6495 15.9715 15.3315 15.9715 15V10C15.9715 9.66848 15.8398 9.35054 15.6053 9.11612C15.3709 8.8817 15.053 8.75 14.7215 8.75H9.72147ZM10.9715 13.75V11.25H13.4715V13.75H10.9715ZM19.7215 8.75C19.3899 8.75 19.072 8.8817 18.8376 9.11612C18.6032 9.35054 18.4715 9.66848 18.4715 10C18.4715 10.3315 18.6032 10.6495 18.8376 10.8839C19.072 11.1183 19.3899 11.25 19.7215 11.25H22.2215C22.553 11.25 22.8709 11.1183 23.1054 10.8839C23.3398 10.6495 23.4715 10.3315 23.4715 10C23.4715 9.66848 23.3398 9.35054 23.1054 9.11612C22.8709 8.8817 22.553 8.75 22.2215 8.75H19.7215ZM19.7215 13.75C19.3899 13.75 19.072 13.8817 18.8376 14.1161C18.6032 14.3505 18.4715 14.6685 18.4715 15C18.4715 15.3315 18.6032 15.6495 18.8376 15.8839C19.072 16.1183 19.3899 16.25 19.7215 16.25H22.2215C22.553 16.25 22.8709 16.1183 23.1054 15.8839C23.3398 15.6495 23.4715 15.3315 23.4715 15C23.4715 14.6685 23.3398 14.3505 23.1054 14.1161C22.8709 13.8817 22.553 13.75 22.2215 13.75H19.7215ZM9.72147 18.75C9.38995 18.75 9.072 18.8817 8.83758 19.1161C8.60316 19.3505 8.47147 19.6685 8.47147 20C8.47147 20.3315 8.60316 20.6495 8.83758 20.8839C9.072 21.1183 9.38995 21.25 9.72147 21.25H22.2215C22.553 21.25 22.8709 21.1183 23.1054 20.8839C23.3398 20.6495 23.4715 20.3315 23.4715 20C23.4715 19.6685 23.3398 19.3505 23.1054 19.1161C22.8709 18.8817 22.553 18.75 22.2215 18.75H9.72147Z" fill="white"/>
</svg>
