<svg width="24" height="24" viewBox="0 0 24 24" fill="none" xmlns="http://www.w3.org/2000/svg">
<path d="M17.2515 16H6.67149C4.58149 16 2.72149 14.47 2.52149 12.39C2.29149 10.01 4.16149 8 6.50149 8H18.8615C20.1715 8 21.3615 8.94 21.4915 10.24C21.6415 11.74 20.4715 13 19.0015 13H8.50149C7.95149 13 7.50149 12.55 7.50149 12C7.50149 11.45 7.95149 11 8.50149 11H17.2515C17.6615 11 18.0015 10.66 18.0015 10.25C18.0015 9.84 17.6615 9.5 17.2515 9.5H8.64149C7.33149 9.5 6.14149 10.44 6.01149 11.74C5.86149 13.24 7.03149 14.5 8.50149 14.5H18.8315C20.9215 14.5 22.7815 12.97 22.9815 10.89C23.2115 8.5 21.3415 6.5 19.0015 6.5H6.73149C3.86149 6.5 1.29149 8.6 1.02149 11.46C0.721487 14.75 3.28149 17.5 6.50149 17.5H17.2515C17.6615 17.5 18.0015 17.16 18.0015 16.75C18.0015 16.34 17.6615 16 17.2515 16Z" fill="#09101D"/>
</svg>
