<svg width="21" height="20" viewBox="0 0 21 20" fill="none" xmlns="http://www.w3.org/2000/svg">
<mask id="mask0_484_1030" style="mask-type:luminance" maskUnits="userSpaceOnUse" x="1" y="0" width="19" height="20">
<path d="M10.5001 18.3334C15.1025 18.3334 18.8334 14.6024 18.8334 10C18.8334 5.39765 15.1025 1.66669 10.5001 1.66669C5.89771 1.66669 2.16675 5.39765 2.16675 10C2.16675 14.6024 5.89771 18.3334 10.5001 18.3334Z" fill="white" stroke="white" stroke-width="2" stroke-linecap="round" stroke-linejoin="round"/>
<path d="M10.83 9.58335C12.0283 9.58335 13 8.65044 13 7.50002C13 6.3496 12.0283 5.41669 10.83 5.41669H8V9.58335H10.83ZM11.6796 14.5834C12.8692 14.5834 13.8333 13.4642 13.8333 12.0834C13.8333 10.7025 12.8692 9.58335 11.6796 9.58335H8V14.5834H11.6796Z" fill="#646464"/>
<path d="M8 9.58335V5.41669H10.83C12.0283 5.41669 13 6.3496 13 7.50002C13 8.65044 12.0283 9.58335 10.83 9.58335H8ZM8 9.58335H11.6796C12.8692 9.58335 13.8333 10.7025 13.8333 12.0834C13.8333 13.4642 12.8692 14.5834 11.6796 14.5834H8V9.58335Z" stroke="black" stroke-width="2" stroke-linecap="round" stroke-linejoin="round"/>
</mask>
<g mask="url(#mask0_484_1030)">
<path d="M0.5 0H20.5V20H0.5V0Z" fill="#5F5F5F"/>
</g>
</svg>
