<svg width="21" height="20" viewBox="0 0 21 20" fill="none" xmlns="http://www.w3.org/2000/svg">
<path d="M6.68064 6.87508C7.3713 6.87508 8.03368 6.60071 8.52206 6.11234C9.01044 5.62396 9.2848 4.96158 9.2848 4.27091C9.2848 3.58025 9.01044 2.91787 8.52206 2.42949C8.03368 1.94111 7.3713 1.66675 6.68064 1.66675C5.98997 1.66675 5.32759 1.94111 4.83921 2.42949C4.35084 2.91787 4.07647 3.58025 4.07647 4.27091C4.07647 4.96158 4.35084 5.62396 4.83921 6.11234C5.32759 6.60071 5.98997 6.87508 6.68064 6.87508ZM2.16675 9.29314C2.16675 8.53272 2.78272 7.91675 3.54314 7.91675H7.43203C7.12768 8.6846 7.12248 9.53869 7.41745 10.3102C7.71242 11.0817 8.2861 11.7145 9.02508 12.0834H7.36328C6.95288 12.0834 6.55175 12.2054 6.21076 12.4337C5.86976 12.6621 5.60429 12.9866 5.448 13.3661C4.05564 13.1084 3.22091 12.4133 2.74383 11.6369C2.16675 10.7015 2.16675 9.7348 2.16675 9.56814V9.29314ZM11.9744 12.0834H13.6376C14.5022 12.0834 15.2431 12.6133 15.5529 13.3661C16.9452 13.1084 17.7799 12.4133 18.257 11.6369C18.8334 10.7008 18.8334 9.73411 18.8334 9.56744V9.29314C18.8334 8.9281 18.6884 8.57801 18.4303 8.31988C18.1722 8.06176 17.8221 7.91675 17.457 7.91675H13.5681C13.8725 8.6846 13.8777 9.53869 13.5827 10.3102C13.2877 11.0817 12.7141 11.7145 11.9751 12.0834H11.9744ZM16.9237 4.27091C16.9237 4.96158 16.6493 5.62396 16.1609 6.11234C15.6726 6.60071 15.0102 6.87508 14.3195 6.87508C13.6289 6.87508 12.9665 6.60071 12.4781 6.11234C11.9897 5.62396 11.7154 4.96158 11.7154 4.27091C11.7154 3.58025 11.9897 2.91787 12.4781 2.42949C12.9665 1.94111 13.6289 1.66675 14.3195 1.66675C15.0102 1.66675 15.6726 1.94111 16.1609 2.42949C16.6493 2.91787 16.9237 3.58025 16.9237 4.27091ZM5.98619 14.1542C5.98619 13.3938 6.60216 12.7779 7.36258 12.7779H13.6376C14.398 12.7779 15.014 13.3938 15.014 14.1542V14.4286C15.014 14.5952 15.014 15.5619 14.4376 16.498C13.8334 17.4813 12.657 18.3334 10.5001 18.3334C8.34314 18.3334 7.16675 17.4806 6.56258 16.4987C5.98619 15.5619 5.98619 14.5959 5.98619 14.4286V14.1542ZM10.5001 11.7362C11.1907 11.7362 11.8531 11.4618 12.3415 10.9734C12.8299 10.4851 13.1042 9.82269 13.1042 9.13203C13.1042 8.44136 12.8299 7.77898 12.3415 7.2906C11.8531 6.80223 11.1907 6.52786 10.5001 6.52786C9.80941 6.52786 9.14703 6.80223 8.65866 7.2906C8.17028 7.77898 7.89591 8.44136 7.89591 9.13203C7.89591 9.82269 8.17028 10.4851 8.65866 10.9734C9.14703 11.4618 9.80941 11.7362 10.5001 11.7362Z" fill="#5F5F5F"/>
</svg>
