<svg width="61" height="60" viewBox="0 0 61 60" fill="none" xmlns="http://www.w3.org/2000/svg">
<rect x="0.971436" width="60" height="60" rx="30" fill="#498371"/>
<path fill-rule="evenodd" clip-rule="evenodd" d="M18.4715 22.5C18.4715 21.5054 18.8666 20.5516 19.5698 19.8483C20.2731 19.1451 21.2269 18.75 22.2215 18.75H39.7215C40.716 18.75 41.6699 19.1451 42.3731 19.8483C43.0764 20.5516 43.4715 21.5054 43.4715 22.5V37.5C43.4715 38.4946 43.0764 39.4484 42.3731 40.1517C41.6699 40.8549 40.716 41.25 39.7215 41.25H22.2215C21.2269 41.25 20.2731 40.8549 19.5698 40.1517C18.8666 39.4484 18.4715 38.4946 18.4715 37.5V22.5ZM24.7215 23.75C24.3899 23.75 24.072 23.8817 23.8376 24.1161C23.6032 24.3505 23.4715 24.6685 23.4715 25V30C23.4715 30.3315 23.6032 30.6495 23.8376 30.8839C24.072 31.1183 24.3899 31.25 24.7215 31.25H29.7215C30.053 31.25 30.3709 31.1183 30.6053 30.8839C30.8398 30.6495 30.9715 30.3315 30.9715 30V25C30.9715 24.6685 30.8398 24.3505 30.6053 24.1161C30.3709 23.8817 30.053 23.75 29.7215 23.75H24.7215ZM25.9715 28.75V26.25H28.4715V28.75H25.9715ZM34.7215 23.75C34.3899 23.75 34.072 23.8817 33.8376 24.1161C33.6032 24.3505 33.4715 24.6685 33.4715 25C33.4715 25.3315 33.6032 25.6495 33.8376 25.8839C34.072 26.1183 34.3899 26.25 34.7215 26.25H37.2215C37.553 26.25 37.8709 26.1183 38.1054 25.8839C38.3398 25.6495 38.4715 25.3315 38.4715 25C38.4715 24.6685 38.3398 24.3505 38.1054 24.1161C37.8709 23.8817 37.553 23.75 37.2215 23.75H34.7215ZM34.7215 28.75C34.3899 28.75 34.072 28.8817 33.8376 29.1161C33.6032 29.3505 33.4715 29.6685 33.4715 30C33.4715 30.3315 33.6032 30.6495 33.8376 30.8839C34.072 31.1183 34.3899 31.25 34.7215 31.25H37.2215C37.553 31.25 37.8709 31.1183 38.1054 30.8839C38.3398 30.6495 38.4715 30.3315 38.4715 30C38.4715 29.6685 38.3398 29.3505 38.1054 29.1161C37.8709 28.8817 37.553 28.75 37.2215 28.75H34.7215ZM24.7215 33.75C24.3899 33.75 24.072 33.8817 23.8376 34.1161C23.6032 34.3505 23.4715 34.6685 23.4715 35C23.4715 35.3315 23.6032 35.6495 23.8376 35.8839C24.072 36.1183 24.3899 36.25 24.7215 36.25H37.2215C37.553 36.25 37.8709 36.1183 38.1054 35.8839C38.3398 35.6495 38.4715 35.3315 38.4715 35C38.4715 34.6685 38.3398 34.3505 38.1054 34.1161C37.8709 33.8817 37.553 33.75 37.2215 33.75H24.7215Z" fill="white"/>
</svg>
