<svg width="61" height="60" viewBox="0 0 61 60" fill="none" xmlns="http://www.w3.org/2000/svg">
<rect x="0.971436" width="60" height="60" rx="30" fill="#E31C27"/>
<path d="M38.1289 31.275L33.4714 35H27.2214V33.75H32.3027C32.4157 33.7499 32.5267 33.7192 32.6236 33.6611C32.7206 33.603 32.8 33.5197 32.8534 33.42C32.9067 33.3203 32.9321 33.2081 32.9266 33.0951C32.9212 32.9822 32.8853 32.8729 32.8227 32.7787L31.7127 31.1137C31.485 30.771 31.176 30.4899 30.8133 30.2956C30.4506 30.1013 30.0454 29.9997 29.6339 30H19.7214C19.3899 30 19.072 30.1317 18.8376 30.3661C18.6031 30.6005 18.4714 30.9185 18.4714 31.25V38.75C18.4714 39.413 18.7348 40.0489 19.2037 40.5178C19.6725 40.9866 20.3084 41.25 20.9714 41.25H33.0202C33.5547 41.2501 34.0831 41.136 34.5699 40.9152C35.0566 40.6945 35.4906 40.3722 35.8427 39.97L43.4714 31.25L41.6564 30.645C41.0626 30.4471 40.4287 30.401 39.8125 30.5111C39.1963 30.6211 38.6175 30.8838 38.1289 31.275ZM40.0439 24.2375C40.6077 23.6562 40.9564 22.8525 40.9564 21.965C40.9564 21.0775 40.6077 20.2738 40.0439 19.6925C39.7588 19.395 39.4166 19.1581 39.0376 18.9962C38.6587 18.8342 38.251 18.7505 37.8389 18.75C37.8389 18.75 36.2839 18.7462 34.7214 20.3575C33.1589 18.7462 31.6039 18.75 31.6039 18.75C31.192 18.7505 30.7844 18.8342 30.4055 18.9959C30.0266 19.1576 29.6843 19.3941 29.3989 19.6913C28.8352 20.2738 28.4864 21.0763 28.4864 21.9638C28.4864 22.8513 28.8352 23.6562 29.3989 24.2362L34.7214 30L40.0439 24.2375Z" fill="white"/>
</svg>
