<svg width="61" height="60" viewBox="0 0 61 60" fill="none" xmlns="http://www.w3.org/2000/svg">
<rect x="0.471436" width="60" height="60" rx="30" fill="#8761F7"/>
<path d="M37.9714 27.2917V28.3333H37.5548V26.875H36.7214V28.3333H36.3048V28.125H35.8881V27.7083H36.3048V26.875H35.7856V21.9792C35.7856 19.3421 33.7714 17.5 30.8881 17.5C28.0048 17.5 25.9914 19.3421 25.9914 21.9792V26.875H25.4714V27.7083H25.8881V28.125H25.4714V28.3333H25.0548V26.875H24.2214V28.3333H23.8048V27.2917H22.9714V29.7917H23.8048V28.75H24.2214V32.9117C24.2214 37.3171 26.6864 39.4504 29.6381 39.905V40.4167H30.0548V41.2804C27.2377 41.4642 25.0548 42.5 25.0548 42.5H36.7214C36.7214 42.5 34.5389 41.4642 31.7214 41.2804V40.4167H32.1381V39.905C35.0906 39.4504 37.5548 37.3171 37.5548 32.9117V28.75H37.9714V29.7917H38.8048V27.2917H37.9714ZM26.6164 21.9792C26.6164 19.6742 28.3327 18.125 30.8881 18.125C33.4435 18.125 35.1606 19.6742 35.1606 21.9792V26.875H26.6164V21.9792ZM36.7214 32.9908C36.7214 36.7671 34.651 38.6321 32.1381 39.0804V38.3333H29.6381V39.0804C27.1252 38.6321 25.0548 36.7667 25.0548 32.9908V28.75H25.4714V28.9583H25.8881V29.375H25.4714V30.2083H26.3039V32.5C26.3039 35.0921 28.2873 37.0833 30.8881 37.0833C33.4898 37.0833 35.4731 35.0921 35.4731 32.5V30.2083H36.3048V29.375H35.8881V28.9583H36.3048V28.75H36.7214V32.9908Z" fill="white"/>
<path d="M27.5368 25.6254C27.2348 25.6488 26.9898 25.8692 26.9898 26.1133C26.9881 26.3575 27.2398 26.5575 27.5464 26.5596C27.8539 26.5617 28.0998 26.3438 28.0956 26.0746C28.091 25.8058 27.8406 25.6021 27.5368 25.6254ZM29.7643 25.5225C29.4535 25.5308 29.2052 25.7679 29.2102 26.0492C29.2143 26.33 29.4673 26.5588 29.7748 26.56C30.0814 26.5604 30.3298 26.3258 30.3289 26.0363C30.3273 25.7463 30.0727 25.5146 29.7643 25.5225ZM32.0127 25.5225C31.7027 25.5146 31.4493 25.7463 31.4481 26.0358C31.4464 26.3258 31.6964 26.56 32.0023 26.5596C32.3089 26.5583 32.5631 26.3296 32.5664 26.0488C32.571 25.7683 32.3235 25.5304 32.0127 25.5225ZM34.2402 25.6254C33.936 25.6021 33.6852 25.8058 33.6802 26.0746C33.6768 26.3438 33.9227 26.5617 34.2302 26.5596C34.5377 26.5575 34.7868 26.3575 34.7868 26.1133C34.7856 25.8692 34.5423 25.6488 34.2402 25.6254ZM27.5214 24.0692C27.8185 24.0138 28.0618 23.7596 28.0568 23.4896C28.0535 23.2204 27.8048 23.0546 27.5114 23.1342C27.2193 23.2138 26.9898 23.49 26.9898 23.7338C26.9893 23.9783 27.2243 24.1229 27.5214 24.0692ZM29.7348 22.7571C29.4164 22.7833 29.1668 23.0454 29.1706 23.3263C29.1748 23.6079 29.4302 23.8121 29.7452 23.7946C30.0593 23.7754 30.3139 23.5342 30.3123 23.245C30.3127 22.9563 30.0506 22.7304 29.7348 22.7571ZM32.0306 23.7946C32.3456 23.8121 32.6018 23.6079 32.6052 23.3263C32.6093 23.0454 32.3593 22.7829 32.0418 22.7571C31.726 22.7304 31.4639 22.9563 31.4631 23.245C31.4627 23.5342 31.7173 23.7758 32.0306 23.7946ZM34.2652 23.1342C33.9714 23.0546 33.7239 23.2204 33.7189 23.4896C33.7148 23.7592 33.9581 24.0138 34.2552 24.0692C34.5523 24.1233 34.7873 23.9783 34.7864 23.7342C34.786 23.4908 34.5577 23.2142 34.2652 23.1342ZM28.6231 24.2296C28.3164 24.2642 28.0723 24.5163 28.076 24.7821C28.0798 25.0479 28.3314 25.245 28.6393 25.2279C28.946 25.2096 29.1943 24.9704 29.1902 24.6875C29.186 24.4046 28.9302 24.1954 28.6231 24.2296ZM30.8881 24.1096C30.5731 24.1096 30.3185 24.3521 30.321 24.6404C30.3235 24.9292 30.5764 25.1592 30.8881 25.1592C31.1998 25.1592 31.4535 24.9292 31.456 24.6404C31.4577 24.3521 31.2039 24.1096 30.8881 24.1096ZM33.1539 24.2296C32.8464 24.1954 32.5906 24.405 32.586 24.6879C32.5827 24.9708 32.8302 25.21 33.1377 25.2283C33.4443 25.2454 33.6968 25.0479 33.701 24.7825C33.7039 24.5167 33.4598 24.2642 33.1539 24.2296ZM28.5802 21.5675C28.2727 21.64 28.0339 21.9313 28.0373 22.1975C28.0414 22.4633 28.2889 22.6213 28.5964 22.5663C28.9039 22.5104 29.1556 22.2488 29.1514 21.9658C29.1481 21.6825 28.8868 21.495 28.5802 21.5675ZM30.8881 22.36C31.2093 22.3592 31.4693 22.1383 31.4714 21.8492C31.4739 21.5608 31.2135 21.31 30.8881 21.31C30.5635 21.31 30.3039 21.5608 30.3056 21.8492C30.3068 22.1383 30.5681 22.3592 30.8881 22.36ZM33.196 21.5675C32.8902 21.495 32.6289 21.6825 32.6248 21.9654C32.6206 22.2488 32.8739 22.5108 33.1806 22.5658C33.4881 22.6213 33.7348 22.4629 33.7389 22.1971C33.7431 21.9313 33.5043 21.64 33.196 21.5675ZM27.496 21.5779C27.7827 21.4654 28.0218 21.1742 28.0177 20.9046C28.0143 20.6358 27.7677 20.5071 27.4864 20.6442C27.2048 20.7804 26.991 21.1117 26.9902 21.355C26.9885 21.5996 27.2098 21.6888 27.496 21.5779ZM29.7164 21.0292C30.0364 20.9913 30.2998 20.7438 30.2981 20.4546C30.2964 20.1654 30.0281 19.9458 29.7056 19.9921C29.381 20.0379 29.1277 20.3242 29.1318 20.6042C29.1368 20.8854 29.3948 21.0658 29.7164 21.0292ZM32.0606 21.0292C32.3806 21.0658 32.6402 20.8854 32.6439 20.6038C32.6481 20.3238 32.3939 20.0379 32.071 19.9917C31.7481 19.9454 31.4802 20.165 31.4793 20.4542C31.4773 20.7438 31.7402 20.9913 32.0606 21.0292ZM34.281 21.5779C34.5668 21.6888 34.7881 21.5996 34.7873 21.355C34.7864 21.1117 34.5723 20.7804 34.291 20.6442C34.0085 20.5067 33.7627 20.6358 33.7589 20.9046C33.7543 21.1742 33.9943 21.4658 34.281 21.5779ZM28.5531 19.9042C28.8606 19.81 29.1164 19.5263 29.1123 19.2433C29.1089 18.9608 28.8443 18.795 28.5368 18.905C28.2293 19.015 27.9948 19.3467 27.9981 19.6121C28.0023 19.8783 28.2456 19.9967 28.5531 19.9042ZM30.8881 19.5608C31.2177 19.56 31.4856 19.3475 31.4873 19.0588C31.4893 18.77 31.2218 18.51 30.8881 18.51C30.5543 18.51 30.2877 18.77 30.2898 19.0588C30.2914 19.3475 30.5585 19.56 30.8881 19.5608ZM33.2231 19.9042C33.5314 19.9971 33.7739 19.8783 33.7781 19.6125C33.7823 19.3467 33.5468 19.015 33.2393 18.9054C32.9318 18.795 32.6681 18.9613 32.6639 19.2438C32.6598 19.5258 32.9168 19.81 33.2231 19.9042Z" fill="white"/>
</svg>
