<svg width="17" height="16" viewBox="0 0 17 16" fill="none" xmlns="http://www.w3.org/2000/svg">
<path d="M15.3183 11.1061V2.01521H1.6819V11.1061H15.3183ZM15.3183 0.500061C15.7201 0.500061 16.1055 0.659693 16.3896 0.943839C16.6738 1.22798 16.8334 1.61337 16.8334 2.01521V11.1061C16.8334 11.508 16.6738 11.8933 16.3896 12.1775C16.1055 12.4616 15.7201 12.6213 15.3183 12.6213H10.0152V14.1364H11.5304V15.6516H5.46978V14.1364H6.98493V12.6213H1.6819C1.28006 12.6213 0.894672 12.4616 0.610526 12.1775C0.32638 11.8933 0.166748 11.508 0.166748 11.1061V2.01521C0.166748 1.1743 0.84099 0.500061 1.6819 0.500061H15.3183ZM3.19705 3.53036H10.0152V7.31824H3.19705V3.53036ZM10.7728 3.53036H13.8031V5.04552H10.7728V3.53036ZM13.8031 5.80309V9.59097H10.7728V5.80309H13.8031ZM3.19705 8.07582H6.22735V9.59097H3.19705V8.07582ZM6.98493 8.07582H10.0152V9.59097H6.98493V8.07582Z" fill="#5F5F5F"/>
</svg>
