<svg width="25" height="24" viewBox="0 0 25 24" fill="none" xmlns="http://www.w3.org/2000/svg">
<g clip-path="url(#clip0_573_7400)">
<path d="M20.4165 6.75018L19.0726 19.6755C19.0296 20.0404 18.8542 20.3769 18.5796 20.6211C18.305 20.8653 17.9504 21.0002 17.5829 21.0002H6.75057C6.38311 21.0002 6.02843 20.8653 5.75383 20.6211C5.47924 20.3769 5.30383 20.0404 5.26088 19.6755L3.9165 6.75018" stroke="#DA1414" stroke-width="1.5" stroke-linecap="round" stroke-linejoin="round"/>
<path d="M21.9165 3.00018H2.4165C2.00229 3.00018 1.6665 3.33597 1.6665 3.75018V6.00018C1.6665 6.4144 2.00229 6.75018 2.4165 6.75018H21.9165C22.3307 6.75018 22.6665 6.4144 22.6665 6.00018V3.75018C22.6665 3.33597 22.3307 3.00018 21.9165 3.00018Z" stroke="#DA1414" stroke-width="1.5" stroke-linecap="round" stroke-linejoin="round"/>
<path d="M14.7915 11.2502L9.5415 16.5002" stroke="#DA1414" stroke-width="1.5" stroke-linecap="round" stroke-linejoin="round"/>
<path d="M14.7915 16.5002L9.5415 11.2502" stroke="#DA1414" stroke-width="1.5" stroke-linecap="round" stroke-linejoin="round"/>
</g>
<defs>
<clipPath id="clip0_573_7400">
<rect width="24" height="24" fill="white" transform="translate(0.166504)"/>
</clipPath>
</defs>
</svg>
