<svg width="21" height="20" viewBox="0 0 21 20" fill="none" xmlns="http://www.w3.org/2000/svg">
<path d="M16.5187 6.29626H8.18538C8.06259 6.29626 7.94483 6.34504 7.85801 6.43186C7.77119 6.51869 7.72241 6.63644 7.72241 6.75923V16.9444C7.72241 17.0672 7.77119 17.185 7.85801 17.2718C7.94483 17.3586 8.06259 17.4074 8.18538 17.4074H16.5187C16.6415 17.4074 16.7592 17.3586 16.8461 17.2718C16.9329 17.185 16.9817 17.0672 16.9817 16.9444V6.75923C16.9817 6.63644 16.9329 6.51869 16.8461 6.43186C16.7592 6.34504 16.6415 6.29626 16.5187 6.29626ZM15.1298 13.7037H9.57426V12.7777H15.1298V13.7037ZM15.1298 11.8518H9.57426V10.9259H15.1298V11.8518ZM15.1298 9.99997H9.57426V9.07404H15.1298V9.99997Z" fill="#5F5F5F"/>
<path d="M4.94448 12.7777V3.51846H13.2778V3.05549C13.2778 2.93271 13.229 2.81495 13.1422 2.72813C13.0554 2.64131 12.9376 2.59253 12.8149 2.59253H4.48152C4.35873 2.59253 4.24098 2.64131 4.15415 2.72813C4.06733 2.81495 4.01855 2.93271 4.01855 3.05549V13.2407C4.01855 13.3635 4.06733 13.4812 4.15415 13.568C4.24098 13.6549 4.35873 13.7036 4.48152 13.7036H4.94448V12.7777Z" fill="#646464"/>
<path d="M6.79629 14.6296V5.37038H15.1296V4.90742C15.1296 4.78464 15.0808 4.66688 14.994 4.58006C14.9072 4.49323 14.7894 4.44446 14.6667 4.44446H6.33332C6.21054 4.44446 6.09278 4.49323 6.00596 4.58006C5.91914 4.66688 5.87036 4.78464 5.87036 4.90742V15.0926C5.87036 15.2154 5.91914 15.3331 6.00596 15.42C6.09278 15.5068 6.21054 15.5556 6.33332 15.5556H6.79629V14.6296Z" fill="#5F5F5F"/>
</svg>
