<svg width="21" height="20" viewBox="0 0 21 20" fill="none" xmlns="http://www.w3.org/2000/svg">
<path d="M5.12933 4.01661C5.36373 3.33095 5.80668 2.73575 6.39618 2.31437C6.98568 1.89298 7.6922 1.66649 8.41682 1.66663H15.3612C16.2821 1.66663 17.1653 2.03245 17.8164 2.68361C18.4676 3.33478 18.8334 4.21794 18.8334 5.13883V12.0832C18.8334 13.6082 17.8501 14.9027 16.4834 15.3707V15.8763C16.4834 16.3415 16.3209 16.936 15.939 17.4263C15.5376 17.9429 14.9001 18.3332 14.0265 18.3332H6.01266C5.50653 18.3367 5.00474 18.2396 4.53647 18.0475C4.0682 17.8554 3.64278 17.5721 3.28494 17.2141C2.92711 16.8562 2.64399 16.4306 2.45204 15.9623C2.2601 15.494 2.16316 14.9921 2.16685 14.486V6.47632C2.16685 5.71383 2.44046 5.07911 2.92518 4.63883C3.3974 4.20967 4.01545 4.018 4.62378 4.018H5.12933V4.01661ZM4.94461 5.40549H4.62517C4.34606 5.39433 4.07278 5.48741 3.85851 5.6666C3.69462 5.81521 3.55573 6.06105 3.55573 6.47493V14.4874C3.55573 15.8665 4.6335 16.9457 6.01405 16.9457H14.0265C14.4418 16.9457 14.6848 16.7777 14.8432 16.5735C14.9961 16.3723 15.0834 16.1288 15.0932 15.8763V15.5554H8.41682C7.49593 15.5554 6.61276 15.1896 5.9616 14.5385C5.31043 13.8873 4.94461 13.0041 4.94461 12.0832V5.40549ZM10.5001 7.22215H12.296L8.61959 10.8971C8.55503 10.9617 8.50381 11.0383 8.46887 11.1227C8.43392 11.2071 8.41594 11.2975 8.41594 11.3888C8.41594 11.4801 8.43392 11.5705 8.46887 11.6549C8.50381 11.7392 8.55503 11.8159 8.61959 11.8805C8.68416 11.945 8.76081 11.9962 8.84517 12.0312C8.92953 12.0661 9.01995 12.0841 9.11126 12.0841C9.20257 12.0841 9.29298 12.0661 9.37734 12.0312C9.4617 11.9962 9.53835 11.945 9.60292 11.8805L13.2779 8.20409V9.99991C13.2779 10.1841 13.3511 10.3607 13.4813 10.491C13.6115 10.6212 13.7882 10.6944 13.9723 10.6944C14.1565 10.6944 14.3332 10.6212 14.4634 10.491C14.5936 10.3607 14.6668 10.1841 14.6668 9.99991V6.52771C14.6668 6.34353 14.5936 6.1669 14.4634 6.03667C14.3332 5.90643 14.1565 5.83327 13.9723 5.83327H10.5001C10.316 5.83327 10.1393 5.90643 10.0091 6.03667C9.87886 6.1669 9.8057 6.34353 9.8057 6.52771C9.8057 6.71189 9.87886 6.88852 10.0091 7.01875C10.1393 7.14899 10.316 7.22215 10.5001 7.22215Z" fill="#5F5F5F"/>
</svg>
