<svg width="15" height="14" viewBox="0 0 15 14" fill="none" xmlns="http://www.w3.org/2000/svg">
<path d="M12.2559 0.643395C11.8454 0.232717 11.3012 0.00456308 10.72 0C10.1389 0 9.59002 0.219028 9.17952 0.629706L2.13197 7.6021C1.86907 7.86219 1.67996 8.18617 1.57849 8.53753L0.351628 12.836C0.273219 13.1097 0.351628 13.4018 0.55918 13.6026C0.706773 13.744 0.905101 13.8216 1.10804 13.8216C1.18645 13.8216 1.26486 13.8125 1.33865 13.7851L5.5635 12.4983C5.9002 12.3979 6.20922 12.2108 6.45828 11.9644L13.5335 4.96464C14.3729 4.13415 14.3776 2.78348 13.5473 1.94387L12.2559 0.643395ZM8.75058 3.24892L10.8815 5.40269L10.3603 5.91832L8.22939 3.76454L8.75058 3.24892ZM5.34672 10.8738C5.27754 10.9423 5.19452 10.9925 5.09766 11.0198L2.24727 11.8868L3.0821 8.95733C3.10977 8.86151 3.16512 8.77025 3.2343 8.69724L7.11322 4.85968L9.2441 7.01346L5.34672 10.8738ZM12.4266 3.8695L11.9884 4.30299L9.85753 2.14921L10.2819 1.73397C10.3972 1.61989 10.5448 1.56514 10.7062 1.56514C10.7062 1.56514 10.7062 1.56514 10.7108 1.56514C10.8722 1.56514 11.0244 1.62446 11.1351 1.73854L12.4266 3.03901C12.6572 3.26717 12.6572 3.64134 12.4266 3.8695Z" fill="#2062F6"/>
</svg>
