<svg width="25" height="24" viewBox="0 0 25 24" fill="none" xmlns="http://www.w3.org/2000/svg">
<path d="M20.2927 12.2167C19.8592 12.2167 19.5087 12.5635 19.5087 12.9925V19.4082C19.5087 19.9877 19.0244 20.4485 18.4432 20.4485H4.80934C4.22358 20.4485 3.73468 19.9877 3.73468 19.4082V5.55007C3.73468 4.97055 4.22358 4.52337 4.80934 4.52337H10.095C10.5286 4.52337 10.8791 4.17658 10.8791 3.74765C10.8791 3.31872 10.5286 2.97192 10.095 2.97192H4.80934C3.36108 2.97192 2.1665 4.11726 2.1665 5.55007V19.4082C2.1665 20.841 3.36108 22 4.80934 22H18.4432C19.8915 22 21.0768 20.8455 21.0768 19.4082V12.9925C21.0768 12.5681 20.7263 12.2167 20.2927 12.2167Z" fill="#2062F6"/>
<path d="M20.2559 2.64339C19.8454 2.23272 19.3012 2.00456 18.72 2C18.1389 2 17.59 2.21903 17.1795 2.62971L10.132 9.6021C9.86907 9.86219 9.67996 10.1862 9.57849 10.5375L8.35163 14.836C8.27322 15.1097 8.35163 15.4018 8.55918 15.6026C8.70677 15.744 8.9051 15.8216 9.10804 15.8216C9.18645 15.8216 9.26486 15.8125 9.33865 15.7851L13.5635 14.4983C13.9002 14.3979 14.2092 14.2108 14.4583 13.9644L21.5335 6.96464C22.3729 6.13415 22.3776 4.78348 21.5473 3.94387L20.2559 2.64339ZM16.7506 5.24892L18.8815 7.40269L18.3603 7.91832L16.2294 5.76454L16.7506 5.24892ZM13.3467 12.8738C13.2775 12.9423 13.1945 12.9925 13.0977 13.0198L10.2473 13.8868L11.0821 10.9573C11.1098 10.8615 11.1651 10.7702 11.2343 10.6972L15.1132 6.85968L17.2441 9.01346L13.3467 12.8738ZM20.4266 5.8695L19.9884 6.30299L17.8575 4.14921L18.2819 3.73397C18.3972 3.61989 18.5448 3.56514 18.7062 3.56514C18.7062 3.56514 18.7062 3.56514 18.7108 3.56514C18.8722 3.56514 19.0244 3.62446 19.1351 3.73854L20.4266 5.03901C20.6572 5.26717 20.6572 5.64134 20.4266 5.8695Z" fill="#2062F6"/>
</svg>
