<svg width="21" height="20" viewBox="0 0 21 20" fill="none" xmlns="http://www.w3.org/2000/svg">
<path d="M15.2717 10.85L12.1667 13.3333H8.00008V12.5H11.3876C11.4629 12.5 11.5369 12.4795 11.6015 12.4407C11.6662 12.402 11.7191 12.3464 11.7547 12.28C11.7903 12.2136 11.8072 12.1387 11.8036 12.0634C11.8 11.9881 11.776 11.9152 11.7342 11.8525L10.9942 10.7425C10.8424 10.514 10.6365 10.3266 10.3946 10.1971C10.1528 10.0675 9.88274 9.99982 9.60842 10H3.00008C2.77907 10 2.56711 10.0878 2.41083 10.2441C2.25455 10.4004 2.16675 10.6123 2.16675 10.8333V15.8333C2.16675 16.2754 2.34234 16.6993 2.6549 17.0118C2.96746 17.3244 3.39139 17.5 3.83341 17.5H11.8659C12.2223 17.5001 12.5745 17.424 12.899 17.2768C13.2236 17.1296 13.5129 16.9148 13.7476 16.6467L18.8334 10.8333L17.6234 10.43C17.2275 10.298 16.8049 10.2673 16.3941 10.3407C15.9833 10.4141 15.5975 10.5892 15.2717 10.85ZM16.5484 6.15833C16.9242 5.77083 17.1567 5.235 17.1567 4.64333C17.1567 4.05167 16.9242 3.51583 16.5484 3.12833C16.3583 2.92998 16.1302 2.77208 15.8776 2.66411C15.625 2.55613 15.3531 2.50031 15.0784 2.5C15.0784 2.5 14.0417 2.4975 13.0001 3.57167C11.9584 2.4975 10.9217 2.5 10.9217 2.5C10.6471 2.50035 10.3754 2.5561 10.1228 2.66392C9.87021 2.77174 9.64197 2.92941 9.45175 3.1275C9.07591 3.51583 8.84342 4.05083 8.84342 4.6425C8.84342 5.23417 9.07591 5.77083 9.45175 6.1575L13.0001 10L16.5484 6.15833Z" fill="#5F5F5F"/>
</svg>
