<svg width="31" height="30" viewBox="0 0 31 30" fill="none" xmlns="http://www.w3.org/2000/svg">
<path d="M23.1289 16.275L18.4714 20H12.2214V18.75H17.3027C17.4157 18.7499 17.5267 18.7192 17.6236 18.6611C17.7206 18.603 17.8 18.5197 17.8534 18.42C17.9067 18.3203 17.9321 18.2081 17.9266 18.0951C17.9212 17.9822 17.8853 17.8729 17.8227 17.7787L16.7127 16.1137C16.485 15.771 16.176 15.4899 15.8133 15.2956C15.4506 15.1013 15.0454 14.9997 14.6339 15H4.72144C4.38991 15 4.07197 15.1317 3.83755 15.3661C3.60313 15.6005 3.47144 15.9185 3.47144 16.25V23.75C3.47144 24.413 3.73483 25.0489 4.20367 25.5178C4.67251 25.9866 5.30839 26.25 5.97144 26.25H18.0202C18.5547 26.2501 19.0831 26.136 19.5699 25.9152C20.0566 25.6945 20.4906 25.3722 20.8427 24.97L28.4714 16.25L26.6564 15.645C26.0626 15.4471 25.4287 15.401 24.8125 15.5111C24.1963 15.6211 23.6175 15.8838 23.1289 16.275ZM25.0439 9.2375C25.6077 8.65625 25.9564 7.8525 25.9564 6.965C25.9564 6.0775 25.6077 5.27375 25.0439 4.6925C24.7588 4.39497 24.4166 4.15812 24.0376 3.99616C23.6587 3.8342 23.251 3.75047 22.8389 3.75C22.8389 3.75 21.2839 3.74625 19.7214 5.3575C18.1589 3.74625 16.6039 3.75 16.6039 3.75C16.192 3.75052 15.7844 3.83415 15.4055 3.99588C15.0266 4.15762 14.6843 4.39412 14.3989 4.69125C13.8352 5.27375 13.4864 6.07625 13.4864 6.96375C13.4864 7.85125 13.8352 8.65625 14.3989 9.23625L19.7214 15L25.0439 9.2375Z" fill="white"/>
</svg>
