<svg width="21" height="20" viewBox="0 0 21 20" fill="none" xmlns="http://www.w3.org/2000/svg">
<path d="M4.94447 5.83337C4.79713 5.83337 4.65582 5.89191 4.55163 5.99609C4.44745 6.10028 4.38892 6.24159 4.38892 6.38893C4.38892 6.53627 4.44745 6.67758 4.55163 6.78177C4.65582 6.88595 4.79713 6.94449 4.94447 6.94449H14.9445C15.0918 6.94449 15.2331 6.88595 15.3373 6.78177C15.4415 6.67758 15.5 6.53627 15.5 6.38893C15.5 6.24159 15.4415 6.10028 15.3373 5.99609C15.2331 5.89191 15.0918 5.83337 14.9445 5.83337H4.94447ZM4.66669 8.0556C4.59302 8.0556 4.52237 8.08486 4.47028 8.13696C4.41818 8.18905 4.38892 8.2597 4.38892 8.33337C4.38892 8.40705 4.41818 8.4777 4.47028 8.52979C4.52237 8.58189 4.59302 8.61115 4.66669 8.61115H15.2222C15.2959 8.61115 15.3666 8.58189 15.4187 8.52979C15.4708 8.4777 15.5 8.40705 15.5 8.33337C15.5 8.2597 15.4708 8.18905 15.4187 8.13696C15.3666 8.08486 15.2959 8.0556 15.2222 8.0556H4.66669ZM12.1667 10C12.1667 9.92637 12.196 9.85572 12.2481 9.80362C12.3001 9.75153 12.3708 9.72226 12.4445 9.72226H15.2222C15.2959 9.72226 15.3666 9.75153 15.4187 9.80362C15.4708 9.85572 15.5 9.92637 15.5 10C15.5 10.0737 15.4708 10.1444 15.4187 10.1965C15.3666 10.2486 15.2959 10.2778 15.2222 10.2778H12.4445C12.3708 10.2778 12.3001 10.2486 12.2481 10.1965C12.196 10.1444 12.1667 10.0737 12.1667 10ZM12.4445 11.3889C12.3708 11.3889 12.3001 11.4182 12.2481 11.4703C12.196 11.5224 12.1667 11.593 12.1667 11.6667C12.1667 11.7404 12.196 11.811 12.2481 11.8631C12.3001 11.9152 12.3708 11.9445 12.4445 11.9445H15.2222C15.2959 11.9445 15.3666 11.9152 15.4187 11.8631C15.4708 11.811 15.5 11.7404 15.5 11.6667C15.5 11.593 15.4708 11.5224 15.4187 11.4703C15.3666 11.4182 15.2959 11.3889 15.2222 11.3889H12.4445ZM12.1667 13.3334C12.1667 13.2597 12.196 13.189 12.2481 13.137C12.3001 13.0849 12.3708 13.0556 12.4445 13.0556H15.2222C15.2959 13.0556 15.3666 13.0849 15.4187 13.137C15.4708 13.189 15.5 13.2597 15.5 13.3334C15.5 13.407 15.4708 13.4777 15.4187 13.5298C15.3666 13.5819 15.2959 13.6112 15.2222 13.6112H12.4445C12.3708 13.6112 12.3001 13.5819 12.2481 13.5298C12.196 13.4777 12.1667 13.407 12.1667 13.3334ZM12.4445 14.7223C12.3708 14.7223 12.3001 14.7515 12.2481 14.8036C12.196 14.8557 12.1667 14.9264 12.1667 15C12.1667 15.0737 12.196 15.1444 12.2481 15.1965C12.3001 15.2486 12.3708 15.2778 12.4445 15.2778H15.2222C15.2959 15.2778 15.3666 15.2486 15.4187 15.1965C15.4708 15.1444 15.5 15.0737 15.5 15C15.5 14.9264 15.4708 14.8557 15.4187 14.8036C15.3666 14.7515 15.2959 14.7223 15.2222 14.7223H12.4445ZM4.38892 10.8334C4.38892 10.5387 4.50598 10.2561 4.71435 10.0477C4.92273 9.83933 5.20534 9.72226 5.50003 9.72226H9.94447C10.2392 9.72226 10.5218 9.83933 10.7301 10.0477C10.9385 10.2561 11.0556 10.5387 11.0556 10.8334V14.1667C11.0556 14.4614 10.9385 14.744 10.7301 14.9524C10.5218 15.1608 10.2392 15.2778 9.94447 15.2778H5.50003C5.20534 15.2778 4.92273 15.1608 4.71435 14.9524C4.50598 14.744 4.38892 14.4614 4.38892 14.1667V10.8334Z" fill="#5F5F5F"/>
<path d="M6.05564 2.5C5.76095 2.5 5.47834 2.61706 5.26996 2.82544C5.06159 3.03381 4.94453 3.31643 4.94453 3.61111H3.8123C2.8623 3.61111 2.16675 4.39889 2.16675 5.27778V15.2778C2.16675 16.4633 3.10175 17.5 4.34619 17.5H17.7317C18.0248 17.4975 18.305 17.3793 18.5113 17.1712C18.7177 16.9631 18.8334 16.6819 18.8334 16.3889V3.61111C18.8334 3.31643 18.7164 3.03381 18.508 2.82544C18.2996 2.61706 18.017 2.5 17.7223 2.5H6.05564ZM16.0767 4.72222C16.3323 4.72222 16.5467 4.90889 16.599 5.15889C16.6067 5.19722 16.6112 5.23667 16.6112 5.27778V15.2778C16.6112 15.5725 16.7283 15.8551 16.9366 16.0635C17.145 16.2718 17.4276 16.3889 17.7223 16.3889H4.34619C3.75619 16.3889 3.27786 15.8917 3.27786 15.2778V5.27778C3.27786 4.97111 3.51675 4.72222 3.8123 4.72222H16.0767Z" fill="#646464"/>
</svg>
