<svg width="21" height="20" viewBox="0 0 21 20" fill="none" xmlns="http://www.w3.org/2000/svg">
<path d="M17.1026 6.79483H4.28205C3.94213 6.79517 3.61624 6.93035 3.37588 7.17071C3.13552 7.41107 3.00034 7.73697 3 8.07688V17.0512C3.00034 17.3912 3.13552 17.7171 3.37588 17.9574C3.61624 18.1978 3.94213 18.333 4.28205 18.3333H17.1026C17.4425 18.333 17.7684 18.1978 18.0087 17.9574C18.2491 17.7171 18.3843 17.3912 18.3846 17.0512V8.07688C18.3843 7.73697 18.2491 7.41107 18.0087 7.17071C17.7684 6.93035 17.4425 6.79517 17.1026 6.79483ZM8.76923 15.1282V9.99996L13.2564 12.5641L8.76923 15.1282ZM4.28205 4.23073H17.1026V5.51278H4.28205V4.23073ZM5.5641 1.66663H15.8205V2.94868H5.5641V1.66663Z" fill="#646464"/>
</svg>
