<svg width="21" height="20" viewBox="0 0 21 20" fill="none" xmlns="http://www.w3.org/2000/svg">
<path d="M10.5001 9.31675C13.2501 6.81675 14.6667 5.53341 14.6667 3.90841C14.6667 2.65841 13.6251 1.66675 12.3751 1.66675C11.6584 1.66675 10.9751 1.96675 10.5001 2.50008C10.0251 1.96675 9.34175 1.66675 8.57508 1.66675C7.32508 1.66675 6.33342 2.70841 6.33342 3.95841C6.33342 5.53341 7.75008 6.81675 10.5001 9.31675ZM9.81675 10.0001C7.31675 7.25008 6.03342 5.83341 4.40841 5.83341C3.15841 5.83341 2.16675 6.87508 2.16675 8.12508C2.16675 8.84175 2.46675 9.52508 3.00008 10.0001C2.46675 10.4751 2.16675 11.1584 2.16675 11.9251C2.16675 13.1751 3.20841 14.1667 4.45841 14.1667C6.03341 14.1667 7.31675 12.7501 9.81675 10.0001ZM11.1917 10.0001C13.6834 12.7501 14.9667 14.1667 16.5917 14.1667C17.8417 14.1667 18.8334 13.1251 18.8334 11.8751C18.8334 11.1584 18.5334 10.4751 18.0001 10.0001C18.5334 9.52508 18.8334 8.84175 18.8334 8.07508C18.8334 6.82508 17.7917 5.83341 16.5417 5.83341C14.9667 5.83341 13.6834 7.25008 11.1917 10.0001ZM10.5001 10.6834C7.75008 13.1834 6.33342 14.4667 6.33342 16.0917C6.33342 17.3417 7.37508 18.3334 8.62508 18.3334C9.34175 18.3334 10.0251 18.0334 10.5001 17.5001C10.9751 18.0334 11.6584 18.3334 12.4251 18.3334C13.6751 18.3334 14.6667 17.2917 14.6667 16.0417C14.6667 14.4667 13.2501 13.1834 10.5001 10.6834Z" fill="#5F5F5F"/>
</svg>
