<svg width="21" height="20" viewBox="0 0 21 20" fill="none" xmlns="http://www.w3.org/2000/svg">
<path d="M10.896 7.73091C10.339 7.73091 9.81747 7.94699 9.42257 8.34189C9.02953 8.73679 8.81159 9.25836 8.81159 9.81532C8.81159 10.3723 9.02953 10.8938 9.42257 11.2887C9.81747 11.6818 10.339 11.8997 10.896 11.8997C11.453 11.8997 11.9745 11.6818 12.3694 11.2887C12.7625 10.8938 12.9804 10.3723 12.9804 9.81532C12.9804 9.25836 12.7625 8.73679 12.3694 8.34189C12.1765 8.14752 11.947 7.99342 11.694 7.88854C11.4411 7.78365 11.1698 7.73007 10.896 7.73091ZM18.5761 12.1177L17.3579 11.0764C17.4156 10.7225 17.4454 10.3611 17.4454 10.0016C17.4454 9.64208 17.4156 9.27885 17.3579 8.92679L18.5761 7.88551C18.6681 7.80673 18.734 7.7018 18.7649 7.58468C18.7959 7.46756 18.7904 7.34379 18.7493 7.22983L18.7326 7.1814C18.3973 6.24386 17.8949 5.37483 17.2498 4.6164L17.2163 4.57728C17.138 4.48517 17.0335 4.41896 16.9168 4.38737C16.8001 4.35578 16.6766 4.3603 16.5625 4.40032L15.0499 4.93866C14.4911 4.48042 13.8689 4.11905 13.1946 3.86758L12.9022 2.28611C12.8801 2.16697 12.8223 2.05737 12.7365 1.97186C12.6506 1.88635 12.5408 1.82899 12.4216 1.80739L12.3713 1.79807C11.4027 1.62297 10.3819 1.62297 9.41326 1.79807L9.36296 1.80739C9.24374 1.82899 9.13392 1.88635 9.04807 1.97186C8.96223 2.05737 8.90444 2.16697 8.88238 2.28611L8.58806 3.87503C7.92014 4.1285 7.29792 4.489 6.74581 4.94238L5.22209 4.40032C5.10802 4.35998 4.98438 4.3553 4.8676 4.38691C4.75081 4.41852 4.64641 4.48492 4.56826 4.57728L4.53473 4.6164C3.89077 5.37564 3.38854 6.24445 3.05199 7.1814L3.03523 7.22983C2.9514 7.46267 3.02032 7.72346 3.20846 7.88551L4.4416 8.93796C4.38385 9.28816 4.35591 9.64581 4.35591 9.99973C4.35591 10.3574 4.38385 10.715 4.4416 11.0615L3.21219 12.1139C3.12016 12.1927 3.05429 12.2977 3.02335 12.4148C2.9924 12.5319 2.99785 12.6557 3.03895 12.7696L3.05572 12.8181C3.39287 13.755 3.89023 14.6212 4.53846 15.3831L4.57199 15.4222C4.65033 15.5143 4.75473 15.5805 4.87145 15.6121C4.98816 15.6437 5.11171 15.6392 5.22581 15.5991L6.74954 15.0571C7.30463 15.5134 7.92306 15.8748 8.59179 16.1244L8.8861 17.7133C8.90817 17.8325 8.96596 17.9421 9.0518 18.0276C9.13764 18.1131 9.24747 18.1705 9.36669 18.1921L9.41698 18.2014C10.3951 18.3774 11.3969 18.3774 12.375 18.2014L12.4253 18.1921C12.5445 18.1705 12.6544 18.1131 12.7402 18.0276C12.826 17.9421 12.8838 17.8325 12.9059 17.7133L13.1984 16.1319C13.8727 15.8785 14.4948 15.519 15.0536 15.0608L16.5662 15.5991C16.6803 15.6395 16.8039 15.6442 16.9207 15.6125C17.0375 15.5809 17.1419 15.5145 17.22 15.4222L17.2535 15.3831C17.9018 14.6175 18.3991 13.755 18.7363 12.8181L18.7531 12.7696C18.8331 12.5386 18.7642 12.2797 18.5761 12.1177ZM10.896 13.09C9.08728 13.09 7.6213 11.624 7.6213 9.81532C7.6213 8.00659 9.08728 6.54062 10.896 6.54062C12.7047 6.54062 14.1707 8.00659 14.1707 9.81532C14.1707 11.624 12.7047 13.09 10.896 13.09Z" fill="#5F5F5F"/>
</svg>
