<svg width="21" height="20" viewBox="0 0 21 20" fill="none" xmlns="http://www.w3.org/2000/svg">
<path d="M15.5 8.19447V8.88891H15.2222V7.91669H14.6667V8.88891H14.3889V8.75002H14.1111V8.47224H14.3889V7.91669H14.0428V4.6528C14.0428 2.89474 12.7 1.66669 10.7778 1.66669C8.85556 1.66669 7.51333 2.89474 7.51333 4.6528V7.91669H7.16667V8.47224H7.44444V8.75002H7.16667V8.88891H6.88889V7.91669H6.33333V8.88891H6.05556V8.19447H5.5V9.86113H6.05556V9.16669H6.33333V11.9411C6.33333 14.8781 7.97667 16.3003 9.94444 16.6034V16.9445H10.2222V17.5203C8.34417 17.6428 6.88889 18.3334 6.88889 18.3334H14.6667C14.6667 18.3334 13.2117 17.6428 11.3333 17.5203V16.9445H11.6111V16.6034C13.5794 16.3003 15.2222 14.8781 15.2222 11.9411V9.16669H15.5V9.86113H16.0556V8.19447H15.5ZM7.93 4.6528C7.93 3.11613 9.07417 2.08335 10.7778 2.08335C12.4814 2.08335 13.6261 3.11613 13.6261 4.6528V7.91669H7.93V4.6528ZM14.6667 11.9939C14.6667 14.5114 13.2864 15.7547 11.6111 16.0536V15.5556H9.94444V16.0536C8.26917 15.7547 6.88889 14.5111 6.88889 11.9939V9.16669H7.16667V9.30558H7.44444V9.58335H7.16667V10.1389H7.72167V11.6667C7.72167 13.3947 9.04389 14.7222 10.7778 14.7222C12.5122 14.7222 13.8344 13.3947 13.8344 11.6667V10.1389H14.3889V9.58335H14.1111V9.30558H14.3889V9.16669H14.6667V11.9939Z" fill="#5F5F5F"/>
<path d="M8.54368 7.08364C8.34229 7.09919 8.17896 7.24614 8.17896 7.40892C8.17785 7.57169 8.34563 7.70503 8.55007 7.70642C8.75507 7.7078 8.91896 7.56253 8.91618 7.38308C8.91313 7.20392 8.74618 7.06808 8.54368 7.08364ZM10.0287 7.01503C9.82146 7.02058 9.65591 7.17864 9.65924 7.36614C9.66202 7.55336 9.83063 7.70586 10.0356 7.70669C10.2401 7.70697 10.4056 7.55058 10.4051 7.35753C10.404 7.16419 10.2342 7.00975 10.0287 7.01503ZM11.5276 7.01503C11.3209 7.00975 11.152 7.16419 11.1512 7.35725C11.1501 7.55058 11.3167 7.70669 11.5206 7.70642C11.7251 7.70558 11.8945 7.55308 11.8967 7.36586C11.8998 7.17892 11.7348 7.0203 11.5276 7.01503ZM13.0126 7.08364C12.8098 7.06808 12.6426 7.20392 12.6392 7.38308C12.637 7.56253 12.8009 7.7078 13.0059 7.70642C13.2109 7.70503 13.377 7.57169 13.377 7.40892C13.3762 7.24614 13.214 7.09919 13.0126 7.08364ZM8.53341 6.04614C8.73146 6.00919 8.89368 5.83975 8.89035 5.65975C8.88813 5.4803 8.72229 5.36975 8.52674 5.4228C8.33202 5.47586 8.17896 5.66003 8.17896 5.82253C8.17868 5.98558 8.33535 6.08197 8.53341 6.04614ZM10.009 5.17142C9.79674 5.18892 9.63035 5.36364 9.63285 5.55086C9.63563 5.73864 9.80591 5.87475 10.0159 5.86308C10.2253 5.8503 10.3951 5.68947 10.394 5.49669C10.3942 5.30419 10.2195 5.15364 10.009 5.17142ZM11.5395 5.86308C11.7495 5.87475 11.9203 5.73864 11.9226 5.55086C11.9253 5.36364 11.7587 5.18864 11.547 5.17142C11.3365 5.15364 11.1617 5.30419 11.1612 5.49669C11.1609 5.68947 11.3306 5.85058 11.5395 5.86308ZM13.0292 5.4228C12.8334 5.36975 12.6684 5.4803 12.6651 5.65975C12.6623 5.83947 12.8245 6.00919 13.0226 6.04614C13.2206 6.08225 13.3773 5.98558 13.3767 5.8228C13.3765 5.66058 13.2242 5.47614 13.0292 5.4228ZM9.26785 6.15308C9.0634 6.17614 8.90063 6.34419 8.90313 6.52142C8.90563 6.69864 9.07341 6.83003 9.27868 6.81864C9.48313 6.80642 9.64868 6.64697 9.6459 6.45836C9.64313 6.26975 9.47257 6.1303 9.26785 6.15308ZM10.7778 6.07308C10.5678 6.07308 10.3981 6.23475 10.3998 6.42697C10.4015 6.61947 10.5701 6.7728 10.7778 6.7728C10.9856 6.7728 11.1548 6.61947 11.1565 6.42697C11.1576 6.23475 10.9884 6.07308 10.7778 6.07308ZM12.2884 6.15308C12.0834 6.1303 11.9128 6.27003 11.9098 6.45864C11.9076 6.64725 12.0726 6.80669 12.2776 6.81892C12.482 6.8303 12.6503 6.69864 12.6531 6.52169C12.6551 6.34447 12.4923 6.17614 12.2884 6.15308ZM9.23924 4.37836C9.03424 4.42669 8.87507 4.62086 8.87729 4.79836C8.88007 4.97558 9.04507 5.08086 9.25007 5.04419C9.45507 5.00697 9.62285 4.83253 9.62007 4.64392C9.61785 4.45503 9.44368 4.33003 9.23924 4.37836ZM10.7778 4.90669C10.992 4.90614 11.1653 4.75892 11.1667 4.56614C11.1684 4.37392 10.9948 4.20669 10.7778 4.20669C10.5615 4.20669 10.3884 4.37392 10.3895 4.56614C10.3903 4.75892 10.5645 4.90614 10.7778 4.90669ZM12.3165 4.37836C12.1126 4.33003 11.9384 4.45503 11.9356 4.64364C11.9328 4.83253 12.1017 5.00725 12.3062 5.04392C12.5112 5.08086 12.6756 4.9753 12.6784 4.79808C12.6812 4.62086 12.522 4.42669 12.3165 4.37836ZM8.51646 4.3853C8.70757 4.3103 8.86702 4.11614 8.86424 3.93642C8.86202 3.75725 8.69757 3.67142 8.51007 3.7628C8.32229 3.85364 8.17979 4.07447 8.17924 4.23669C8.17813 4.39975 8.32563 4.45919 8.51646 4.3853ZM9.99674 4.01947C10.2101 3.99419 10.3856 3.82919 10.3845 3.63642C10.3834 3.44364 10.2045 3.29725 9.98952 3.32808C9.77313 3.35864 9.60424 3.54947 9.60702 3.73614C9.61035 3.92364 9.78229 4.04392 9.99674 4.01947ZM11.5595 4.01947C11.7728 4.04392 11.9459 3.92364 11.9484 3.73586C11.9512 3.54919 11.7817 3.35864 11.5665 3.3278C11.3512 3.29697 11.1726 3.44336 11.172 3.63614C11.1706 3.82919 11.3459 3.99419 11.5595 4.01947ZM13.0398 4.3853C13.2303 4.45919 13.3778 4.39975 13.3773 4.23669C13.3767 4.07447 13.234 3.85364 13.0465 3.7628C12.8581 3.67114 12.6942 3.75725 12.6917 3.93642C12.6887 4.11614 12.8487 4.31058 13.0398 4.3853ZM9.22118 3.26947C9.42618 3.20669 9.59674 3.01753 9.59396 2.82892C9.59174 2.64058 9.41535 2.53003 9.21035 2.60336C9.00535 2.67669 8.84896 2.8978 8.85118 3.07475C8.85396 3.25225 9.01618 3.33114 9.22118 3.26947ZM10.7778 3.04058C10.9976 3.04003 11.1762 2.89836 11.1773 2.70586C11.1787 2.51336 11.0003 2.34003 10.7778 2.34003C10.5553 2.34003 10.3776 2.51336 10.379 2.70586C10.3801 2.89836 10.5581 3.04003 10.7778 3.04058ZM12.3345 3.26947C12.5401 3.33142 12.7017 3.25225 12.7045 3.07503C12.7073 2.8978 12.5503 2.67669 12.3453 2.60364C12.1403 2.53003 11.9645 2.64086 11.9617 2.82919C11.959 3.01725 12.1303 3.20669 12.3345 3.26947Z" fill="#5F5F5F"/>
</svg>
