<svg width="31" height="30" viewBox="0 0 31 30" fill="none" xmlns="http://www.w3.org/2000/svg">
<path d="M22.9714 12.2917V13.3333H22.5548V11.875H21.7214V13.3333H21.3048V13.125H20.8881V12.7083H21.3048V11.875H20.7856V6.97917C20.7856 4.34208 18.7714 2.5 15.8881 2.5C13.0048 2.5 10.9914 4.34208 10.9914 6.97917V11.875H10.4714V12.7083H10.8881V13.125H10.4714V13.3333H10.0548V11.875H9.22144V13.3333H8.80477V12.2917H7.97144V14.7917H8.80477V13.75H9.22144V17.9117C9.22144 22.3171 11.6864 24.4504 14.6381 24.905V25.4167H15.0548V26.2804C12.2377 26.4642 10.0548 27.5 10.0548 27.5H21.7214C21.7214 27.5 19.5389 26.4642 16.7214 26.2804V25.4167H17.1381V24.905C20.0906 24.4504 22.5548 22.3171 22.5548 17.9117V13.75H22.9714V14.7917H23.8048V12.2917H22.9714ZM11.6164 6.97917C11.6164 4.67417 13.3327 3.125 15.8881 3.125C18.4435 3.125 20.1606 4.67417 20.1606 6.97917V11.875H11.6164V6.97917ZM21.7214 17.9908C21.7214 21.7671 19.651 23.6321 17.1381 24.0804V23.3333H14.6381V24.0804C12.1252 23.6321 10.0548 21.7667 10.0548 17.9908V13.75H10.4714V13.9583H10.8881V14.375H10.4714V15.2083H11.3039V17.5C11.3039 20.0921 13.2873 22.0833 15.8881 22.0833C18.4898 22.0833 20.4731 20.0921 20.4731 17.5V15.2083H21.3048V14.375H20.8881V13.9583H21.3048V13.75H21.7214V17.9908Z" fill="white"/>
<path d="M12.5368 10.6254C12.2348 10.6488 11.9898 10.8692 11.9898 11.1133C11.9881 11.3575 12.2398 11.5575 12.5464 11.5596C12.8539 11.5617 13.0998 11.3438 13.0956 11.0746C13.091 10.8058 12.8406 10.6021 12.5368 10.6254ZM14.7643 10.5225C14.4535 10.5308 14.2052 10.7679 14.2102 11.0492C14.2143 11.33 14.4673 11.5588 14.7748 11.56C15.0814 11.5604 15.3298 11.3258 15.3289 11.0363C15.3273 10.7463 15.0727 10.5146 14.7643 10.5225ZM17.0127 10.5225C16.7027 10.5146 16.4493 10.7463 16.4481 11.0358C16.4464 11.3258 16.6964 11.56 17.0023 11.5596C17.3089 11.5583 17.5631 11.3296 17.5664 11.0488C17.571 10.7683 17.3235 10.5304 17.0127 10.5225ZM19.2402 10.6254C18.936 10.6021 18.6852 10.8058 18.6802 11.0746C18.6768 11.3438 18.9227 11.5617 19.2302 11.5596C19.5377 11.5575 19.7868 11.3575 19.7868 11.1133C19.7856 10.8692 19.5423 10.6488 19.2402 10.6254ZM12.5214 9.06918C12.8185 9.01376 13.0618 8.75959 13.0568 8.48959C13.0535 8.22043 12.8048 8.05459 12.5114 8.13418C12.2193 8.21376 11.9898 8.49001 11.9898 8.73376C11.9893 8.97834 12.2243 9.12293 12.5214 9.06918ZM14.7348 7.75709C14.4164 7.78334 14.1668 8.04543 14.1706 8.32626C14.1748 8.60793 14.4302 8.81209 14.7452 8.79459C15.0593 8.77543 15.3139 8.53418 15.3123 8.24501C15.3127 7.95626 15.0506 7.73043 14.7348 7.75709ZM17.0306 8.79459C17.3456 8.81209 17.6018 8.60793 17.6052 8.32626C17.6093 8.04543 17.3593 7.78293 17.0418 7.75709C16.726 7.73043 16.4639 7.95626 16.4631 8.24501C16.4627 8.53418 16.7173 8.77584 17.0306 8.79459ZM19.2652 8.13418C18.9714 8.05459 18.7239 8.22043 18.7189 8.48959C18.7148 8.75918 18.9581 9.01376 19.2552 9.06918C19.5523 9.12334 19.7873 8.97834 19.7864 8.73418C19.786 8.49084 19.5577 8.21418 19.2652 8.13418ZM13.6231 9.22959C13.3164 9.26418 13.0723 9.51626 13.076 9.78209C13.0798 10.0479 13.3314 10.245 13.6393 10.2279C13.946 10.2096 14.1943 9.97043 14.1902 9.68751C14.186 9.40459 13.9302 9.19543 13.6231 9.22959ZM15.8881 9.10959C15.5731 9.10959 15.3185 9.35209 15.321 9.64043C15.3235 9.92918 15.5764 10.1592 15.8881 10.1592C16.1998 10.1592 16.4535 9.92918 16.456 9.64043C16.4577 9.35209 16.2039 9.10959 15.8881 9.10959ZM18.1539 9.22959C17.8464 9.19543 17.5906 9.40501 17.586 9.68793C17.5827 9.97084 17.8302 10.21 18.1377 10.2283C18.4443 10.2454 18.6968 10.0479 18.701 9.78251C18.7039 9.51668 18.4598 9.26418 18.1539 9.22959ZM13.5802 6.56751C13.2727 6.64001 13.0339 6.93126 13.0373 7.19751C13.0414 7.46334 13.2889 7.62126 13.5964 7.56626C13.9039 7.51043 14.1556 7.24876 14.1514 6.96584C14.1481 6.68251 13.8868 6.49501 13.5802 6.56751ZM15.8881 7.36001C16.2093 7.35918 16.4693 7.13834 16.4714 6.84918C16.4739 6.56084 16.2135 6.31001 15.8881 6.31001C15.5635 6.31001 15.3039 6.56084 15.3056 6.84918C15.3068 7.13834 15.5681 7.35918 15.8881 7.36001ZM18.196 6.56751C17.8902 6.49501 17.6289 6.68251 17.6248 6.96543C17.6206 7.24876 17.8739 7.51084 18.1806 7.56584C18.4881 7.62126 18.7348 7.46293 18.7389 7.19709C18.7431 6.93126 18.5043 6.64001 18.196 6.56751ZM12.496 6.57793C12.7827 6.46543 13.0218 6.17418 13.0177 5.90459C13.0143 5.63584 12.7677 5.50709 12.4864 5.64418C12.2048 5.78043 11.991 6.11168 11.9902 6.35501C11.9885 6.59959 12.2098 6.68876 12.496 6.57793ZM14.7164 6.02918C15.0364 5.99126 15.2998 5.74376 15.2981 5.45459C15.2964 5.16543 15.0281 4.94584 14.7056 4.99209C14.381 5.03793 14.1277 5.32418 14.1318 5.60418C14.1368 5.88543 14.3948 6.06584 14.7164 6.02918ZM17.0606 6.02918C17.3806 6.06584 17.6402 5.88543 17.6439 5.60376C17.6481 5.32376 17.3939 5.03793 17.071 4.99168C16.7481 4.94543 16.4802 5.16501 16.4793 5.45418C16.4773 5.74376 16.7402 5.99126 17.0606 6.02918ZM19.281 6.57793C19.5668 6.68876 19.7881 6.59959 19.7873 6.35501C19.7864 6.11168 19.5723 5.78043 19.291 5.64418C19.0085 5.50668 18.7627 5.63584 18.7589 5.90459C18.7543 6.17418 18.9943 6.46584 19.281 6.57793ZM13.5531 4.90418C13.8606 4.81001 14.1164 4.52626 14.1123 4.24334C14.1089 3.96084 13.8443 3.79501 13.5368 3.90501C13.2293 4.01501 12.9948 4.34668 12.9981 4.61209C13.0023 4.87834 13.2456 4.99668 13.5531 4.90418ZM15.8881 4.56084C16.2177 4.56001 16.4856 4.34751 16.4873 4.05876C16.4893 3.77001 16.2218 3.51001 15.8881 3.51001C15.5543 3.51001 15.2877 3.77001 15.2898 4.05876C15.2914 4.34751 15.5585 4.56001 15.8881 4.56084ZM18.2231 4.90418C18.5314 4.99709 18.7739 4.87834 18.7781 4.61251C18.7823 4.34668 18.5468 4.01501 18.2393 3.90543C17.9318 3.79501 17.6681 3.96126 17.6639 4.24376C17.6598 4.52584 17.9168 4.81001 18.2231 4.90418Z" fill="white"/>
</svg>
