<svg width="19" height="18" viewBox="0 0 19 18" fill="none" xmlns="http://www.w3.org/2000/svg">
<path fill-rule="evenodd" clip-rule="evenodd" d="M12.6867 11.4716H13.4767L17.7167 15.7316C18.1267 16.1416 18.1267 16.8116 17.7167 17.2216C17.3067 17.6316 16.6367 17.6316 16.2267 17.2216L11.9767 12.9716V12.1816L11.7067 11.9016C10.3067 13.1016 8.3967 13.7216 6.3667 13.3816C3.5867 12.9116 1.3667 10.5916 1.0267 7.79157C0.5067 3.56157 4.0667 0.00157288 8.2967 0.521573C11.0967 0.861573 13.4167 3.08157 13.8867 5.86157C14.2267 7.89157 13.6067 9.80157 12.4067 11.2016L12.6867 11.4716ZM2.9767 6.97157C2.9767 9.46157 4.9867 11.4716 7.4767 11.4716C9.9667 11.4716 11.9767 9.46157 11.9767 6.97157C11.9767 4.48157 9.9667 2.47157 7.4767 2.47157C4.9867 2.47157 2.9767 4.48157 2.9767 6.97157Z" fill="#6D7580"/>
</svg>
