<svg width="21" height="16" viewBox="0 0 21 16" fill="none" xmlns="http://www.w3.org/2000/svg">
<path d="M20.0866 7.6C18.0666 2.91 14.2666 0 10.1666 0C6.06657 0 2.26657 2.91 0.246571 7.6C0.191507 7.72617 0.163086 7.86234 0.163086 8C0.163086 8.13766 0.191507 8.27383 0.246571 8.4C2.26657 13.09 6.06657 16 10.1666 16C14.2666 16 18.0666 13.09 20.0866 8.4C20.1416 8.27383 20.1701 8.13766 20.1701 8C20.1701 7.86234 20.1416 7.72617 20.0866 7.6ZM10.1666 14C6.98657 14 3.99657 11.71 2.26657 8C3.99657 4.29 6.98657 2 10.1666 2C13.3466 2 16.3366 4.29 18.0666 8C16.3366 11.71 13.3466 14 10.1666 14ZM10.1666 4C9.37545 4 8.60209 4.2346 7.94429 4.67412C7.28649 5.11365 6.7738 5.73836 6.47105 6.46927C6.1683 7.20017 6.08909 8.00444 6.24343 8.78036C6.39777 9.55628 6.77873 10.269 7.33814 10.8284C7.89755 11.3878 8.61029 11.7688 9.38621 11.9231C10.1621 12.0775 10.9664 11.9983 11.6973 11.6955C12.4282 11.3928 13.0529 10.8801 13.4924 10.2223C13.932 9.56448 14.1666 8.79113 14.1666 8C14.1666 6.93913 13.7451 5.92172 12.995 5.17157C12.2449 4.42143 11.2274 4 10.1666 4ZM10.1666 10C9.77101 10 9.38433 9.8827 9.05543 9.66294C8.72653 9.44318 8.47019 9.13082 8.31881 8.76537C8.16744 8.39991 8.12783 7.99778 8.205 7.60982C8.28217 7.22186 8.47265 6.86549 8.75236 6.58579C9.03206 6.30608 9.38843 6.1156 9.77639 6.03843C10.1644 5.96126 10.5665 6.00087 10.9319 6.15224C11.2974 6.30362 11.6097 6.55996 11.8295 6.88886C12.0493 7.21776 12.1666 7.60444 12.1666 8C12.1666 8.53043 11.9559 9.03914 11.5808 9.41421C11.2057 9.78929 10.697 10 10.1666 10Z" fill="#498371"/>
</svg>
