<svg width="283" height="231" viewBox="0 0 283 231" fill="none" xmlns="http://www.w3.org/2000/svg">
<path d="M66.6447 230.592C72.0887 230.592 76.5019 228.937 76.5019 226.896C76.5019 224.854 72.0887 223.199 66.6447 223.199C61.2006 223.199 56.7874 224.854 56.7874 226.896C56.7874 228.937 61.2006 230.592 66.6447 230.592Z" fill="#F29E23"/>
<path d="M90.299 230.099C95.743 230.099 100.156 228.444 100.156 226.403C100.156 224.361 95.743 222.706 90.299 222.706C84.8549 222.706 80.4417 224.361 80.4417 226.403C80.4417 228.444 84.8549 230.099 90.299 230.099Z" fill="#F29E23"/>
<path d="M121.706 167.968C131.021 162.599 137.206 155.875 135.52 152.951C133.834 150.026 124.916 152.009 115.601 157.379C106.286 162.749 100.102 169.472 101.787 172.397C103.473 175.321 112.391 173.338 121.706 167.968Z" fill="#F29E23"/>
<path d="M113.348 181.555C116.793 160.328 102.378 140.329 81.1515 136.884C59.9253 133.44 39.9256 147.854 36.481 169.081C33.0365 190.307 47.4514 210.307 68.6777 213.751C89.9039 217.196 109.904 202.781 113.348 181.555Z" fill="#F29E23"/>
<path d="M68.6161 205.456H56.7874V226.649H68.6161V205.456Z" fill="#F29E23"/>
<path d="M92.6554 205.875H80.8267V227.068H92.6554V205.875Z" fill="#F29E23"/>
<path d="M75.5156 178.349C82.865 178.349 88.8229 172.391 88.8229 165.041C88.8229 157.692 82.865 151.734 75.5156 151.734C68.1662 151.734 62.2083 157.692 62.2083 165.041C62.2083 172.391 68.1662 178.349 75.5156 178.349Z" fill="white"/>
<path d="M75.5154 169.477C77.9652 169.477 79.9512 167.491 79.9512 165.041C79.9512 162.591 77.9652 160.605 75.5154 160.605C73.0656 160.605 71.0796 162.591 71.0796 165.041C71.0796 167.491 73.0656 169.477 75.5154 169.477Z" fill="#3F3D56"/>
<path d="M36.76 138.689C33.616 124.609 43.6659 110.382 59.207 106.912C74.748 103.441 89.8952 112.042 93.0391 126.122C96.1831 140.202 85.8834 145.395 70.3423 148.865C54.8013 152.335 39.9039 152.769 36.76 138.689Z" fill="black"/>
<path d="M48.6479 165.594C50.0943 162.544 43.3916 156.337 33.6769 151.729C23.9622 147.121 14.9143 145.859 13.4679 148.908C12.0215 151.958 18.7242 158.166 28.4389 162.773C38.1535 167.381 47.2014 168.643 48.6479 165.594Z" fill="#F29E23"/>
<path d="M55.4028 188.945C55.4028 192.756 65.215 200.281 76.1031 200.281C86.9912 200.281 97.1999 189.552 97.1999 185.742C97.1999 181.931 86.9911 186.481 76.1031 186.481C65.2151 186.481 55.4028 185.134 55.4028 188.945Z" fill="white"/>
<path d="M210.298 230.592C215.742 230.592 220.155 228.937 220.155 226.896C220.155 224.854 215.742 223.199 210.298 223.199C204.854 223.199 200.44 224.854 200.44 226.896C200.44 228.937 204.854 230.592 210.298 230.592Z" fill="#F29E23"/>
<path d="M186.64 230.099C192.084 230.099 196.497 228.444 196.497 226.403C196.497 224.361 192.084 222.706 186.64 222.706C181.196 222.706 176.783 224.361 176.783 226.403C176.783 228.444 181.196 230.099 186.64 230.099Z" fill="#F29E23"/>
<path d="M175.151 172.397C176.837 169.472 170.652 162.749 161.337 157.379C152.022 152.009 143.104 150.026 141.419 152.951C139.733 155.875 145.917 162.599 155.232 167.968C164.547 173.338 173.465 175.321 175.151 172.397Z" fill="#F29E23"/>
<path d="M202.412 213.835C223.916 213.835 241.348 196.403 241.348 174.899C241.348 153.395 223.916 135.962 202.412 135.962C180.908 135.962 163.476 153.395 163.476 174.899C163.476 196.403 180.908 213.835 202.412 213.835Z" fill="#F29E23"/>
<path d="M220.155 205.456H208.326V226.649H220.155V205.456Z" fill="#F29E23"/>
<path d="M196.497 205.456H184.668V226.649H196.497V205.456Z" fill="#F29E23"/>
<path d="M193.29 178.349C200.639 178.349 206.597 172.391 206.597 165.041C206.597 157.692 200.639 151.734 193.29 151.734C185.94 151.734 179.982 157.692 179.982 165.041C179.982 172.391 185.94 178.349 193.29 178.349Z" fill="white"/>
<path d="M190.083 166.358C191.821 164.621 191.833 161.815 190.108 160.089C188.384 158.363 185.577 158.372 183.839 160.108C182.101 161.845 182.09 164.651 183.814 166.377C185.538 168.103 188.345 168.094 190.083 166.358Z" fill="#3F3D56"/>
<path d="M206.599 148.96C191.058 145.49 180.759 140.297 183.902 126.217C187.046 112.137 202.194 103.536 217.735 107.006C233.276 110.476 243.326 124.704 240.182 138.783C237.038 152.863 222.14 152.43 206.599 148.96Z" fill="black"/>
<path d="M243.126 204.578C246.388 203.712 246.795 194.585 244.035 184.194C241.275 173.802 236.393 166.08 233.131 166.947C229.868 167.813 229.461 176.94 232.221 187.331C234.982 197.723 239.864 205.445 243.126 204.578Z" fill="#F29E23"/>
<path d="M193.589 186.481C186.441 186.481 179.738 181.931 179.738 185.742C179.738 189.553 186.441 200.282 193.589 200.282C200.737 200.282 207.179 192.757 207.179 188.946C207.179 185.135 200.737 186.481 193.589 186.481Z" fill="white"/>
<path d="M143.272 110.341H139.814C136.717 110.337 133.747 109.105 131.557 106.915C129.367 104.725 128.135 101.755 128.131 98.6575V95.7545C128.131 88.5643 129.494 82.5439 132.181 77.8606C135.437 72.4129 139.236 67.3085 143.52 62.6254C146.363 59.7656 148.944 56.6555 151.229 53.3326C152.869 50.7511 153.716 47.7452 153.664 44.6873C153.664 37.4746 148.965 33.9682 139.298 33.9682C133.935 34.0288 128.607 34.8286 123.463 36.3449C121.479 36.9112 119.391 37.0093 117.363 36.6315C115.335 36.2538 113.422 35.4105 111.775 34.1679C110.128 32.9254 108.792 31.3176 107.872 29.4711C106.952 27.6246 106.473 25.5897 106.473 23.5267V17.6502C106.462 15.1204 107.184 12.6417 108.554 10.5144C109.923 8.38717 111.88 6.70276 114.187 5.66537C123.272 1.78829 133.069 -0.139102 142.946 0.00780919C153.292 0.00780919 162.632 1.74578 170.707 5.17271C178.797 8.6076 185.188 13.4511 189.703 19.5691C194.204 25.6438 196.597 33.0233 196.516 40.5836C196.516 48.7023 194.3 55.7733 189.929 61.6004C185.605 67.3683 179.407 73.6827 171.507 80.3693C167.345 83.8309 163.4 87.5468 159.697 91.4955C157.304 94.0721 155.614 97.2197 154.786 100.637C154.326 103.355 152.916 105.822 150.807 107.599C148.699 109.375 146.029 110.347 143.272 110.341Z" fill="#498371"/>
<path d="M141.349 165.283H140.893C135.153 165.279 129.649 162.996 125.591 158.936C121.533 154.875 119.253 149.37 119.253 143.629C119.253 137.889 121.533 132.383 125.591 128.323C129.649 124.262 135.153 121.979 140.893 121.975H141.349C144.194 121.974 147.011 122.532 149.64 123.62C152.269 124.707 154.658 126.302 156.67 128.313C158.682 130.324 160.278 132.711 161.367 135.339C162.456 137.968 163.017 140.784 163.017 143.629C163.017 146.474 162.456 149.291 161.367 151.919C160.278 154.547 158.682 156.935 156.67 158.946C154.658 160.957 152.269 162.551 149.64 163.639C147.011 164.726 144.194 165.285 141.349 165.283Z" fill="#F29E23"/>
<path d="M282.072 231H0.903835C0.664058 231 0.434115 230.905 0.264568 230.735C0.0950199 230.566 -0.000244141 230.336 -0.000244141 230.096C-0.000244141 229.856 0.0950199 229.626 0.264568 229.457C0.434115 229.287 0.664058 229.192 0.903835 229.192H282.072C282.312 229.192 282.542 229.287 282.712 229.457C282.881 229.626 282.976 229.856 282.976 230.096C282.976 230.336 282.881 230.566 282.712 230.735C282.542 230.905 282.312 231 282.072 231Z" fill="#D7DDF2"/>
<path d="M55.3483 77.8825C58.5773 77.8825 61.1949 75.2649 61.1949 72.0359C61.1949 68.8069 58.5773 66.1893 55.3483 66.1893C52.1193 66.1893 49.5017 68.8069 49.5017 72.0359C49.5017 75.2649 52.1193 77.8825 55.3483 77.8825Z" fill="#F29E23"/>
</svg>
