<svg width="81" height="80" viewBox="0 0 81 80" fill="none" xmlns="http://www.w3.org/2000/svg">
<path d="M25.2221 27.5003C27.9847 27.5003 30.6343 26.4029 32.5878 24.4494C34.5413 22.4958 35.6387 19.8463 35.6387 17.0837C35.6387 14.321 34.5413 11.6715 32.5878 9.71796C30.6343 7.76446 27.9847 6.66699 25.2221 6.66699C22.4594 6.66699 19.8099 7.76446 17.8564 9.71796C15.9029 11.6715 14.8054 14.321 14.8054 17.0837C14.8054 19.8463 15.9029 22.4958 17.8564 24.4494C19.8099 26.4029 22.4594 27.5003 25.2221 27.5003ZM7.1665 37.1725C7.1665 34.1309 9.63039 31.667 12.6721 31.667H28.2276C27.0102 34.7384 26.9894 38.1548 28.1693 41.2408C29.3492 44.3268 31.6439 46.8578 34.5998 48.3337H27.9526C26.311 48.3338 24.7065 48.8215 23.3425 49.7349C21.9786 50.6484 20.9167 51.9463 20.2915 53.4642C14.7221 52.4337 11.3832 49.6531 9.47484 46.5475C7.1665 42.8059 7.1665 38.9392 7.1665 38.2725V37.1725ZM46.3971 48.3337H53.0498C56.5082 48.3337 59.4721 50.4531 60.7109 53.4642C66.2804 52.4337 69.6193 49.6531 71.5276 46.5475C73.8332 42.8031 73.8332 38.9364 73.8332 38.2698V37.1725C73.8332 35.7124 73.2531 34.312 72.2206 33.2795C71.1881 32.247 69.7878 31.667 68.3276 31.667H52.7721C53.9894 34.7384 54.0102 38.1548 52.8304 41.2408C51.6505 44.3268 49.3558 46.8578 46.3998 48.3337H46.3971ZM66.1943 17.0837C66.1943 19.8463 65.0968 22.4958 63.1433 24.4494C61.1898 26.4029 58.5403 27.5003 55.7776 27.5003C53.0149 27.5003 50.3654 26.4029 48.4119 24.4494C46.4584 22.4958 45.3609 19.8463 45.3609 17.0837C45.3609 14.321 46.4584 11.6715 48.4119 9.71796C50.3654 7.76446 53.0149 6.66699 55.7776 6.66699C58.5403 6.66699 61.1898 7.76446 63.1433 9.71796C65.0968 11.6715 66.1943 14.321 66.1943 17.0837ZM22.4443 56.617C22.4443 53.5753 24.9082 51.1114 27.9498 51.1114H53.0498C56.0915 51.1114 58.5554 53.5753 58.5554 56.617V57.7142C58.5554 58.3809 58.5554 62.2475 56.2498 65.992C53.8332 69.9253 49.1276 73.3337 40.4998 73.3337C31.8721 73.3337 27.1665 69.9225 24.7498 65.9948C22.4443 62.2475 22.4443 58.3837 22.4443 57.7142V56.617ZM40.4998 46.9448C43.2625 46.9448 45.912 45.8473 47.8655 43.8938C49.819 41.9403 50.9165 39.2908 50.9165 36.5281C50.9165 33.7654 49.819 31.1159 47.8655 29.1624C45.912 27.2089 43.2625 26.1114 40.4998 26.1114C37.7372 26.1114 35.0876 27.2089 33.1341 29.1624C31.1806 31.1159 30.0832 33.7654 30.0832 36.5281C30.0832 39.2908 31.1806 41.9403 33.1341 43.8938C35.0876 45.8473 37.7372 46.9448 40.4998 46.9448Z" fill="#D22A2F"/>
</svg>
