<svg width="81" height="80" viewBox="0 0 81 80" fill="none" xmlns="http://www.w3.org/2000/svg">
<path fill-rule="evenodd" clip-rule="evenodd" d="M55.4781 10.6809C55.7177 10.2961 56.0661 9.99093 56.4791 9.80401C56.8921 9.61709 57.3513 9.5568 57.7986 9.63075L69.589 11.5981C70.1885 11.6981 70.7238 12.032 71.0772 12.5265C71.4306 13.0209 71.5733 13.6355 71.4739 14.235L69.5111 26.0301C69.4362 26.4772 69.2304 26.8921 68.9198 27.2223C68.6092 27.5525 68.2076 27.7832 67.7659 27.8853C67.3242 27.9874 66.8622 27.9562 66.4382 27.7958C66.0142 27.6354 65.6472 27.3529 65.3837 26.984L62.2011 22.5356L45.8109 33.0099C45.112 33.4571 44.2749 33.6366 43.454 33.5153C42.6332 33.3939 41.8839 32.9799 41.3442 32.3495L32.2044 21.6643L15.1127 30.4463C14.3014 30.8635 13.3577 30.9413 12.489 30.6627C11.6204 30.384 10.898 29.7717 10.4809 28.9605C10.0637 28.1492 9.98585 27.2055 10.2645 26.3369C10.5431 25.4682 11.1554 24.7459 11.9667 24.3287L31.4799 14.2992C32.1688 13.9453 32.957 13.8343 33.7169 13.9841C34.4767 14.1339 35.1638 14.5358 35.6668 15.1247L44.6278 25.6036L58.2021 16.927L55.5561 13.2261C55.293 12.8571 55.1452 12.4184 55.1313 11.9653C55.1174 11.5123 55.2381 11.0654 55.4781 10.6809ZM25.4585 33.1979L12.1501 40.8106C11.6244 41.1109 11.1872 41.5447 10.8828 42.0681C10.5785 42.5915 10.4177 43.1859 10.4166 43.7914V70.1606C10.4166 72.0592 11.9575 73.6 13.8561 73.6H25.4585V33.1979ZM31.191 73.6H48.0122V42.3606L40.45 46.1394L32.8923 32.9136C32.5107 32.241 31.9126 31.7173 31.1955 31.4277L31.191 73.6ZM66.5944 73.6H53.7446V39.4944L65.0581 33.8353C65.5825 33.5736 66.1651 33.4501 66.7506 33.4767C67.336 33.5033 67.905 33.6791 68.4035 33.9874C68.902 34.2956 69.3134 34.7262 69.5987 35.2381C69.8841 35.7501 70.0339 36.3264 70.0339 36.9125V70.1606C70.0339 71.0728 69.6715 71.9476 69.0265 72.5926C68.3815 73.2377 67.5066 73.6 66.5944 73.6Z" fill="#FF671B"/>
</svg>
