<svg width="81" height="80" viewBox="0 0 81 80" fill="none" xmlns="http://www.w3.org/2000/svg">
<path d="M19.161 6.40002L6.8999 21.1133H14.2565V33.3744H24.0654V21.1133H31.422L19.161 6.40002ZM53.492 6.40002V18.6611H46.1353L58.3964 33.3744L70.6575 18.6611H63.3008V6.40002H53.492ZM65.7677 37.8043C64.9585 37.8227 64.2026 38.1747 63.1715 39.275L62.1657 40.3431L61.1216 39.3132C59.9894 38.1974 59.096 37.8894 58.1904 37.9292C57.2849 37.9691 56.2202 38.4449 55.0293 39.4088L54.0762 40.1799L53.171 39.3561C51.807 38.122 50.6445 37.7565 49.531 37.814C48.7206 37.8559 47.8796 38.1612 47.0405 38.6952L53.3195 49.9887C55.6881 51.4374 60.528 51.9825 63.8564 50.3052L69.9247 39.064C68.7737 38.5947 67.7392 38.1137 66.845 37.9292C66.5213 37.8622 66.2208 37.813 65.93 37.8043C65.8759 37.8029 65.8217 37.8029 65.7676 37.8043H65.7677ZM13.0304 38.2788C6.8999 38.2788 6.8999 38.2788 6.8999 44.4093V68.9399C6.8999 75.062 6.8999 75.062 13.0304 75.062H25.2915C31.422 75.062 31.422 75.062 31.422 68.9315V44.4093C31.422 38.2788 31.422 38.2788 25.2915 38.2788H13.0304ZM51.9785 52.5467V52.547C49.2144 54.4999 46.995 57.8678 46.1353 62.8009C45.3023 67.5821 46.6146 70.8111 48.9371 73.0118C51.2598 75.2127 54.7461 76.3434 58.2862 76.2975C61.8266 76.2515 65.3571 75.0238 67.731 72.7822C70.1051 70.5404 71.4478 67.3529 70.6864 62.7913C69.8991 58.0774 67.8662 54.7991 65.2929 52.8149C60.9277 55.1224 55.4698 54.632 51.9785 52.5467Z" fill="#FF671B"/>
</svg>
