<svg width="81" height="80" viewBox="0 0 81 80" fill="none" xmlns="http://www.w3.org/2000/svg">
<path d="M35.1725 6.40002V26.0923C36.0024 25.8954 36.8463 25.7266 37.7043 25.6141V19.5798C44.034 18.4545 50.3637 24.1231 56.6934 19.9033V8.65057C50.3637 12.8704 44.034 7.20038 37.7043 8.32846V6.40002H35.1725ZM40.9395 27.9209C29.1945 27.9209 19.7 37.4154 19.7 49.1605C19.7 60.9055 29.1945 70.4 40.9395 70.4C52.6846 70.4 62.1791 60.9055 62.1791 49.1605C62.1791 37.4154 52.6846 27.9209 40.9395 27.9209ZM38.0419 31.5499L48.929 48.3306L37.1558 52.2128L33.9487 44.6031L30.5167 47.5851L22.3725 45.8268L29.1663 38.7939L34.9896 39.9051L38.0419 31.5499ZM52.558 32.4079L51.1232 37.3169L56.5105 37.2185L51.3905 41.593L47.016 38.1046L48.8024 34.7851L52.558 32.4079ZM57.2841 53.2818L53.5567 59.3161L50.5747 54.2383L57.2841 53.2818ZM49.3791 57.8813L51.6156 64.4501C46.6784 68.4449 39.3641 69.4998 35.3553 66.8273L40.7285 58.2611L44.8358 62.5794L49.3791 57.8813Z" fill="#006400"/>
</svg>
