<svg width="46" height="65" viewBox="0 0 46 65" fill="none" xmlns="http://www.w3.org/2000/svg">
<path fill-rule="evenodd" clip-rule="evenodd" d="M0.500244 5.40004V53.4C0.500244 54.6731 1.00596 55.894 1.90613 56.7941C2.80631 57.6943 4.0272 58.2 5.30024 58.2H26.1002V52.544C24.8801 51.8396 23.9266 50.7523 23.3874 49.4506C22.8483 48.149 22.7537 46.7059 23.1183 45.345C23.483 43.9842 24.2864 42.7817 25.4042 41.924C26.5219 41.0663 27.8914 40.6015 29.3002 40.6015C30.7091 40.6015 32.0786 41.0663 33.1963 41.924C34.314 42.7817 35.1175 43.9842 35.4822 45.345C35.8468 46.7059 35.7522 48.149 35.2131 49.4506C34.6739 50.7523 33.7203 51.8396 32.5002 52.544V58.2H40.5002C41.7733 58.2 42.9942 57.6943 43.8943 56.7941C44.7945 55.894 45.3002 54.6731 45.3002 53.4V5.40004C45.3002 4.127 44.7945 2.9061 43.8943 2.00592C42.9942 1.10575 41.7733 0.600037 40.5002 0.600037H5.30024C4.0272 0.600037 2.80631 1.10575 1.90613 2.00592C1.00596 2.9061 0.500244 4.127 0.500244 5.40004ZM29.3002 50.2C30.1489 50.2 30.9629 49.8629 31.563 49.2628C32.1631 48.6627 32.5002 47.8487 32.5002 47C32.5002 46.1513 32.1631 45.3374 31.563 44.7373C30.9629 44.1372 30.1489 43.8 29.3002 43.8C28.4515 43.8 27.6376 44.1372 27.0375 44.7373C26.4374 45.3374 26.1002 46.1513 26.1002 47C26.1002 47.8487 26.4374 48.6627 27.0375 49.2628C27.6376 49.8629 28.4515 50.2 29.3002 50.2ZM13.3002 11.8C13.3002 11.3757 13.4688 10.9687 13.7689 10.6687C14.0689 10.3686 14.4759 10.2 14.9002 10.2H30.9002C31.3246 10.2 31.7316 10.3686 32.0316 10.6687C32.3317 10.9687 32.5002 11.3757 32.5002 11.8C32.5002 12.2244 32.3317 12.6313 32.0316 12.9314C31.7316 13.2315 31.3246 13.4 30.9002 13.4H14.9002C14.4759 13.4 14.0689 13.2315 13.7689 12.9314C13.4688 12.6313 13.3002 12.2244 13.3002 11.8ZM8.50024 19.8C8.0759 19.8 7.66893 19.9686 7.36887 20.2687C7.06881 20.5687 6.90024 20.9757 6.90024 21.4C6.90024 21.8244 7.06881 22.2313 7.36887 22.5314C7.66893 22.8315 8.0759 23 8.50024 23H37.3002C37.7246 23 38.1316 22.8315 38.4316 22.5314C38.7317 22.2313 38.9002 21.8244 38.9002 21.4C38.9002 20.9757 38.7317 20.5687 38.4316 20.2687C38.1316 19.9686 37.7246 19.8 37.3002 19.8H8.50024ZM6.90024 27.8C6.90024 27.3757 7.06881 26.9687 7.36887 26.6687C7.66893 26.3686 8.0759 26.2 8.50024 26.2H37.3002C37.7246 26.2 38.1316 26.3686 38.4316 26.6687C38.7317 26.9687 38.9002 27.3757 38.9002 27.8C38.9002 28.2244 38.7317 28.6313 38.4316 28.9314C38.1316 29.2315 37.7246 29.4 37.3002 29.4H8.50024C8.0759 29.4 7.66893 29.2315 7.36887 28.9314C7.06881 28.6313 6.90024 28.2244 6.90024 27.8ZM8.50024 32.6C8.0759 32.6 7.66893 32.7686 7.36887 33.0687C7.06881 33.3687 6.90024 33.7757 6.90024 34.2C6.90024 34.6244 7.06881 35.0313 7.36887 35.3314C7.66893 35.6315 8.0759 35.8 8.50024 35.8H37.3002C37.7246 35.8 38.1316 35.6315 38.4316 35.3314C38.7317 35.0313 38.9002 34.6244 38.9002 34.2C38.9002 33.7757 38.7317 33.3687 38.4316 33.0687C38.1316 32.7686 37.7246 32.6 37.3002 32.6H8.50024Z" fill="#2F7B6B"/>
<path d="M26.1001 64.6V58.2H32.5001V64.6L29.3001 62.2L26.1001 64.6Z" fill="black"/>
</svg>
