<svg width="80" height="81" viewBox="0 0 80 81" fill="none" xmlns="http://www.w3.org/2000/svg">
<rect y="0.0632324" width="80" height="80" rx="40" fill="#F29E23"/>
<path d="M58.2789 50.0292C58.0678 49.8181 57.7864 49.7477 57.5753 49.7477C57.3643 49.7477 57.0125 49.8181 56.8718 50.0292L56.3794 50.5216L56.6608 53.2654L58.2789 51.5769C58.701 51.1548 58.701 50.4513 58.2789 50.0292ZM55.8165 58.7528L54.1984 45.1749V45.1045L53.706 40.602L53.0728 36.3105C53.0024 35.6773 52.2989 35.4662 51.8065 35.8884L44.2084 42.8532C43.927 43.1346 43.8566 43.4864 44.0677 43.8382C47.0225 48.4111 51.1029 55.9387 53.6356 62.0594C53.706 62.1297 53.706 62.2001 53.7763 62.2705C53.9874 62.4815 54.3391 62.5519 54.6205 62.2705C55.5351 61.3559 55.9572 60.0895 55.8165 58.7528ZM36.329 59.2453L34.4294 52.7025C34.2887 52.2804 33.7963 52.0694 33.3742 52.2101C32.6706 52.5618 31.8264 52.8433 30.9822 52.984C30.4897 53.0543 30.2083 53.6875 30.4897 54.1096L34.5702 60.2302C34.8516 60.6524 35.4144 60.6524 35.6958 60.3709L36.0475 60.0192C36.329 59.7378 36.3993 59.4564 36.329 59.2453ZM30.8415 48.6925C30.7711 48.6221 30.6304 48.5518 30.4897 48.5518C30.349 48.5518 30.2083 48.6221 30.138 48.6925L25.9168 52.984C25.7058 53.195 25.7058 53.4764 25.9168 53.6171C26.0575 53.8282 26.4093 53.8282 26.55 53.6171L30.8415 49.3256C31.0525 49.1849 31.0525 48.8332 30.8415 48.6925ZM26.9018 45.3156L20.7811 43.8382C20.4997 43.7678 20.2886 43.8382 20.0776 44.0492L19.6555 44.4713C19.3037 44.8231 19.3741 45.3859 19.7258 45.597L25.354 49.396C25.8465 49.6774 26.4093 49.4663 26.55 48.9035C26.6907 48.0593 27.0425 47.1447 27.3942 46.3708C27.6053 45.9487 27.3942 45.4563 26.9018 45.3156ZM43.2938 27.235L39.2134 26.6019L34.7109 26.1094L21.1329 24.4913C19.8665 24.3506 18.6002 24.7727 17.6856 25.6873C17.4042 25.9687 17.4746 26.3204 17.6856 26.5315C17.756 26.6019 17.756 26.6019 17.8967 26.6722C23.5952 28.9938 30.9118 33.0743 35.6958 36.1698C35.9772 36.3808 36.3993 36.3105 36.6104 36.0291L43.7159 28.5014C44.1381 28.0793 43.8567 27.3757 43.2938 27.235ZM29.8565 21.9586C29.4344 21.5365 28.7309 21.5365 28.3088 21.9586L26.6203 23.5767L29.2937 23.8581L29.7862 23.3657C29.9973 23.1546 30.0676 22.8732 30.0676 22.6621C30.138 22.4511 30.0676 22.1697 29.8565 21.9586ZM39.2838 23.3657C38.8616 22.9435 38.1581 22.9435 37.736 23.3657L36.329 24.7023L39.0023 24.9838L39.2134 24.7727C39.7059 24.4209 39.7059 23.7878 39.2838 23.3657ZM61.9372 18.2299C60.3894 16.6822 55.3241 18.5817 52.7914 21.044L29.6455 45.597C29.153 46.0894 28.5199 47.2854 28.2384 48.5518L29.153 47.6372C29.9269 46.8633 31.1932 46.8633 31.9671 47.6372C32.741 48.4111 32.741 49.6774 31.9671 50.4513L30.8415 51.4362C32.1782 51.1548 33.5149 50.4513 34.0777 49.9588L59.0527 27.1647C60.9523 25.3355 62.5 22.0993 62.5 19.9184C62.5 19.1445 62.2889 18.5817 61.9372 18.2299ZM58.701 24.2802C58.6306 24.2802 58.6306 24.2802 58.701 24.2802C58.2789 24.2802 57.9271 23.9988 57.8568 23.6471C57.7864 23.3657 57.5753 22.5214 56.5201 22.4511H56.309C55.8869 22.4511 55.5351 22.0993 55.6055 21.6772C55.6758 21.2551 55.9572 20.9033 56.3794 20.9033H56.5904C58.0678 20.9737 59.1231 21.9586 59.3341 23.436C59.4045 23.8581 59.0527 24.2099 58.701 24.2802ZM56.9422 40.602C56.7311 40.3909 56.4497 40.3205 56.2386 40.3205C56.0276 40.3205 55.6758 40.4612 55.5351 40.602L55.3241 40.813L55.6055 43.4864L56.9422 42.0794C57.2939 41.7276 57.2939 41.0241 56.9422 40.602Z" fill="white"/>
</svg>
