<svg width="26" height="26" viewBox="0 0 26 26" fill="none" xmlns="http://www.w3.org/2000/svg">
<mask id="path-1-inside-1_640_3498" fill="white">
<path fill-rule="evenodd" clip-rule="evenodd" d="M3.51014 2.74568C5.00546 1.17125 7.47895 1.46516 8.71569 3.21398L10.2525 5.38964C11.2416 6.78845 11.1587 8.73118 9.97805 9.97511L9.67923 10.2885C9.67839 10.291 9.67757 10.2934 9.67679 10.2958C9.66094 10.3397 9.62191 10.4812 9.66094 10.7495C9.74265 11.3044 10.1708 12.4337 11.9124 14.2667C13.659 16.1057 14.7177 16.5387 15.2092 16.6192C15.3276 16.6457 15.4508 16.6428 15.5678 16.6106L16.0654 16.0862C17.1314 14.9642 18.7926 14.7435 20.133 15.5143L22.4626 16.8557C24.4543 18.0021 24.9178 20.8058 23.3261 22.4815L21.5942 24.3047C21.0539 24.8742 20.316 25.3608 19.4049 25.4511C17.1802 25.6706 12.0271 25.384 6.62518 19.696C1.58307 14.3898 0.625627 9.77388 0.50488 7.51895C0.445116 6.40429 0.941522 5.4494 1.59526 4.76036L3.51014 2.74568ZM7.2216 4.2701C6.59713 3.38716 5.47381 3.3335 4.83592 4.00546L2.92104 6.02014C2.51855 6.44698 2.30511 6.93479 2.33194 7.42139C2.42952 9.26289 3.22352 13.4605 7.95096 18.4363C12.9077 23.6559 17.4754 23.8022 19.2256 23.6291C19.5707 23.5961 19.9269 23.4035 20.2672 23.0449L21.9991 21.2217C22.748 20.4339 22.5516 19.0168 21.5503 18.4411L19.2207 17.0997C18.595 16.7399 17.862 16.8509 17.3924 17.346L16.8362 17.9314L16.1935 17.3204C16.8362 17.9302 16.8362 17.9314 16.835 17.9326L16.8338 17.9338L16.8301 17.9387L16.8216 17.946L16.8045 17.9631C16.7533 18.0134 16.6978 18.0591 16.6387 18.0997C16.5411 18.168 16.4118 18.2448 16.2471 18.3094C15.9105 18.4424 15.4666 18.5131 14.9165 18.4241C13.8456 18.2509 12.443 17.4814 10.5867 15.5264C8.72301 13.5654 8.0095 12.1032 7.85095 11.0142C7.76923 10.4605 7.83387 10.0178 7.9534 9.68242C8.01974 9.49552 8.11435 9.3199 8.23392 9.16167L8.27051 9.11655L8.28759 9.09826L8.29491 9.08972L8.29857 9.08606L8.301 9.08484C8.301 9.08484 8.301 9.0824 8.95109 9.69827L8.30222 9.0824L8.65227 8.7141C9.19502 8.14214 9.2743 7.17382 8.7596 6.44576L7.2216 4.2701Z"/>
</mask>
<path fill-rule="evenodd" clip-rule="evenodd" d="M3.51014 2.74568C5.00546 1.17125 7.47895 1.46516 8.71569 3.21398L10.2525 5.38964C11.2416 6.78845 11.1587 8.73118 9.97805 9.97511L9.67923 10.2885C9.67839 10.291 9.67757 10.2934 9.67679 10.2958C9.66094 10.3397 9.62191 10.4812 9.66094 10.7495C9.74265 11.3044 10.1708 12.4337 11.9124 14.2667C13.659 16.1057 14.7177 16.5387 15.2092 16.6192C15.3276 16.6457 15.4508 16.6428 15.5678 16.6106L16.0654 16.0862C17.1314 14.9642 18.7926 14.7435 20.133 15.5143L22.4626 16.8557C24.4543 18.0021 24.9178 20.8058 23.3261 22.4815L21.5942 24.3047C21.0539 24.8742 20.316 25.3608 19.4049 25.4511C17.1802 25.6706 12.0271 25.384 6.62518 19.696C1.58307 14.3898 0.625627 9.77388 0.50488 7.51895C0.445116 6.40429 0.941522 5.4494 1.59526 4.76036L3.51014 2.74568ZM7.2216 4.2701C6.59713 3.38716 5.47381 3.3335 4.83592 4.00546L2.92104 6.02014C2.51855 6.44698 2.30511 6.93479 2.33194 7.42139C2.42952 9.26289 3.22352 13.4605 7.95096 18.4363C12.9077 23.6559 17.4754 23.8022 19.2256 23.6291C19.5707 23.5961 19.9269 23.4035 20.2672 23.0449L21.9991 21.2217C22.748 20.4339 22.5516 19.0168 21.5503 18.4411L19.2207 17.0997C18.595 16.7399 17.862 16.8509 17.3924 17.346L16.8362 17.9314L16.1935 17.3204C16.8362 17.9302 16.8362 17.9314 16.835 17.9326L16.8338 17.9338L16.8301 17.9387L16.8216 17.946L16.8045 17.9631C16.7533 18.0134 16.6978 18.0591 16.6387 18.0997C16.5411 18.168 16.4118 18.2448 16.2471 18.3094C15.9105 18.4424 15.4666 18.5131 14.9165 18.4241C13.8456 18.2509 12.443 17.4814 10.5867 15.5264C8.72301 13.5654 8.0095 12.1032 7.85095 11.0142C7.76923 10.4605 7.83387 10.0178 7.9534 9.68242C8.01974 9.49552 8.11435 9.3199 8.23392 9.16167L8.27051 9.11655L8.28759 9.09826L8.29491 9.08972L8.29857 9.08606L8.301 9.08484C8.301 9.08484 8.301 9.0824 8.95109 9.69827L8.30222 9.0824L8.65227 8.7141C9.19502 8.14214 9.2743 7.17382 8.7596 6.44576L7.2216 4.2701Z" fill="#000000"/>
<path d="M0.61282 9.51604L1.42512 9.47214L1.20924 5.47796L0.39694 5.52187L0.61282 9.51604ZM3.51014 2.74568L6.40947 5.50138L6.4105 5.5003L3.51014 2.74568ZM8.71569 3.21398L11.9828 0.906221L11.9816 0.904402L8.71569 3.21398ZM10.2525 5.38964L6.98533 7.6974L6.98654 7.69911L10.2525 5.38964ZM9.97805 9.97511L12.8731 12.7353L12.8793 12.7288L9.97805 9.97511ZM9.67923 10.2885L6.78416 7.52835L6.18558 8.15619L5.90084 8.97559L9.67923 10.2885ZM9.67679 10.2958L13.439 11.6545L13.4644 11.5841L13.4872 11.5128L9.67679 10.2958ZM9.66094 10.7495L5.70259 11.3253L5.70362 11.3323L9.66094 10.7495ZM11.9124 14.2667L14.8129 11.5121L14.8122 11.5114L11.9124 14.2667ZM15.2092 16.6192L16.0838 12.7159L15.9704 12.6905L15.8556 12.6717L15.2092 16.6192ZM15.5678 16.6106L16.6272 20.4678L17.702 20.1726L18.4693 19.364L15.5678 16.6106ZM16.0654 16.0862L13.1656 13.3311L13.1639 13.3328L16.0654 16.0862ZM20.133 15.5143L22.1291 12.0479L22.1269 12.0466L20.133 15.5143ZM22.4626 16.8557L20.4665 20.3221L20.4672 20.3225L22.4626 16.8557ZM23.3261 22.4815L26.2262 25.2364L26.2263 25.2363L23.3261 22.4815ZM21.5942 24.3047L18.6941 21.5498L18.6923 21.5517L21.5942 24.3047ZM19.4049 25.4511L19.7977 29.4317L19.7992 29.4316L19.4049 25.4511ZM6.62518 19.696L9.52559 16.9415L9.52485 16.9407L6.62518 19.696ZM0.50488 7.51895L4.49916 7.30507L4.49914 7.3048L0.50488 7.51895ZM1.59526 4.76036L-1.30406 2.00465L-1.30651 2.00723L1.59526 4.76036ZM7.2216 4.2701L10.4879 1.96112L10.4874 1.96037L7.2216 4.2701ZM4.83592 4.00546L7.73525 6.76117L7.73696 6.75937L4.83592 4.00546ZM2.92104 6.02014L0.021719 3.26443L0.0162647 3.27017L0.0108331 3.27593L2.92104 6.02014ZM2.33194 7.42139L6.32635 7.20974L6.32588 7.20115L2.33194 7.42139ZM7.95096 18.4363L10.8515 15.6818L10.8508 15.6811L7.95096 18.4363ZM19.2256 23.6291L18.8457 19.6471L18.8317 19.6485L19.2256 23.6291ZM20.2672 23.0449L17.3671 20.29L17.3658 20.2913L20.2672 23.0449ZM21.9991 21.2217L19.0999 18.4658L19.099 18.4668L21.9991 21.2217ZM21.5503 18.4411L19.5542 21.9075L19.5568 21.909L21.5503 18.4411ZM19.2207 17.0997L21.2168 13.6333L21.2146 13.632L19.2207 17.0997ZM17.3924 17.346L20.2923 20.1012L20.2948 20.0985L17.3924 17.346ZM16.8362 17.9314L14.0804 20.8306L16.9803 23.5871L19.7361 20.6865L16.8362 17.9314ZM16.1935 17.3204L18.9464 14.4185L13.4376 20.2196L16.1935 17.3204ZM16.835 17.9326L14.0068 15.104L16.835 17.9326ZM16.8338 17.9338L14.0055 15.1052L13.8045 15.3063L13.6338 15.5338L16.8338 17.9338ZM16.8301 17.9387L19.4331 20.9759L19.7666 20.6901L20.0301 20.3387L16.8301 17.9387ZM16.8216 17.946L14.2187 14.9088L14.102 15.0088L13.9933 15.1174L16.8216 17.946ZM16.8045 17.9631L19.6076 20.8167L19.6202 20.8042L19.6328 20.7917L16.8045 17.9631ZM16.6387 18.0997L14.3759 14.8012L14.3604 14.8119L14.345 14.8226L16.6387 18.0997ZM16.2471 18.3094L14.7855 14.586L14.778 14.589L16.2471 18.3094ZM14.9165 18.4241L15.5556 14.4755L15.555 14.4754L14.9165 18.4241ZM10.5867 15.5264L13.4873 12.7721L13.4862 12.7709L10.5867 15.5264ZM7.85095 11.0142L11.8092 10.4379L11.8081 10.4301L7.85095 11.0142ZM7.9534 9.68242L11.7213 11.0253L11.723 11.0205L7.9534 9.68242ZM8.23392 9.16167L5.12707 6.64226L5.08396 6.69541L5.0427 6.75001L8.23392 9.16167ZM8.27051 9.11655L5.3464 6.38716L5.25137 6.48897L5.16366 6.59713L8.27051 9.11655ZM8.28759 9.09826L11.2117 11.8276L11.2695 11.7658L11.3246 11.7015L8.28759 9.09826ZM8.29491 9.08972L5.46708 6.26069L5.35816 6.36957L5.25793 6.4865L8.29491 9.08972ZM8.29857 9.08606L6.50918 5.50862L5.9293 5.79866L5.47074 6.25703L8.29857 9.08606ZM8.301 9.08484L10.0904 12.6623L12.301 11.5566V9.08484H8.301ZM8.95109 9.69827L6.20011 12.6021L11.7048 6.79704L8.95109 9.69827ZM8.30222 9.0824L5.40285 6.32675L2.64534 9.22808L5.54853 11.9836L8.30222 9.0824ZM8.65227 8.7141L11.5516 11.4698L11.5538 11.4675L8.65227 8.7141ZM8.7596 6.44576L5.49332 8.75474L5.49336 8.7548L8.7596 6.44576ZM6.4105 5.5003C6.35504 5.5587 6.26157 5.6267 6.1381 5.67125C6.02036 5.71374 5.90814 5.72332 5.81479 5.71405C5.63004 5.69571 5.50631 5.60343 5.44983 5.52356L11.9816 0.904402C9.42089 -2.7165 3.99526 -3.57353 0.609788 -0.00894308L6.4105 5.5003ZM5.44855 5.52174L6.98533 7.6974L13.5196 3.08188L11.9828 0.906221L5.44855 5.52174ZM6.98654 7.69911C6.94658 7.6426 6.93159 7.58245 6.93491 7.52181C6.93862 7.45418 6.9706 7.33332 7.07678 7.22145L12.8793 12.7288C15.4549 10.0151 15.5404 5.93952 13.5184 3.08017L6.98654 7.69911ZM7.08298 7.21493L6.78416 7.52835L12.5743 13.0487L12.8731 12.7353L7.08298 7.21493ZM5.90084 8.97559C5.88893 9.00989 5.87744 9.04433 5.8664 9.07892L13.4872 11.5128C13.4777 11.5425 13.4678 11.572 13.4576 11.6015L5.90084 8.97559ZM5.91462 8.93714C5.65858 9.6461 5.57617 10.4562 5.7026 11.3253L13.6193 10.1737C13.6676 10.5062 13.6633 11.0334 13.439 11.6545L5.91462 8.93714ZM5.70362 11.3323C5.95624 13.0477 7.00264 14.9065 9.01274 17.022L14.8122 11.5114C14.1037 10.7657 13.7707 10.2757 13.6293 10.0305C13.4874 9.7845 13.5703 9.84115 13.6183 10.1667L5.70362 11.3323ZM9.01202 17.0212C11.0025 19.1171 12.8096 20.2795 14.5628 20.5666L15.8556 12.6717C16.2744 12.7403 16.3957 12.8663 16.1866 12.7326C15.9811 12.6012 15.5255 12.2624 14.8129 11.5121L9.01202 17.0212ZM14.3346 20.5224C15.0917 20.692 15.879 20.6733 16.6272 20.4678L14.5084 12.7535C15.0226 12.6122 15.5635 12.5994 16.0838 12.7159L14.3346 20.5224ZM18.4693 19.364L18.967 18.8396L13.1639 13.3328L12.6663 13.8572L18.4693 19.364ZM18.9653 18.8414C18.8624 18.9496 18.71 19.0298 18.5446 19.0527C18.3827 19.0751 18.2387 19.0392 18.1391 18.9819L22.1269 12.0466C19.2281 10.3798 15.5359 10.8362 13.1656 13.3311L18.9653 18.8414ZM18.1369 18.9806L20.4665 20.3221L24.4587 13.3894L22.1291 12.0479L18.1369 18.9806ZM20.4672 20.3225C20.3306 20.2439 20.2935 20.1349 20.2868 20.0922C20.2823 20.0637 20.2803 20.0145 20.3 19.9461C20.3219 19.8703 20.366 19.7898 20.4259 19.7267L26.2263 25.2363C29.6709 21.6099 28.6062 15.7766 24.4579 13.389L20.4672 20.3225ZM20.426 19.7266L18.6941 21.5498L24.4943 27.0596L26.2262 25.2364L20.426 19.7266ZM18.6923 21.5517C18.6506 21.5957 18.6441 21.5899 18.6899 21.5644C18.7448 21.5338 18.8572 21.4857 19.0106 21.4705L19.7992 29.4316C21.9481 29.2187 23.5195 28.087 24.496 27.0577L18.6923 21.5517ZM19.0121 21.4704C17.8237 21.5876 13.9532 21.6036 9.52559 16.9415L3.72477 22.4506C10.1009 29.1644 16.5367 29.7535 19.7977 29.4317L19.0121 21.4704ZM9.52485 16.9407C5.16862 12.3563 4.57141 8.65442 4.49916 7.30507L-3.4894 7.73284C-3.32016 10.8933 -2.00248 16.4234 3.72551 22.4514L9.52485 16.9407ZM4.49914 7.3048C4.50183 7.35489 4.49813 7.40635 4.48917 7.454C4.48043 7.50044 4.46858 7.53352 4.46077 7.55178C4.44758 7.58266 4.45041 7.56263 4.49704 7.51348L-1.30651 2.00723C-2.5005 3.26569 -3.62289 5.24303 -3.48938 7.73311L4.49914 7.3048ZM4.49459 7.51606L6.40947 5.50138L0.610819 -0.0100279L-1.30406 2.00465L4.49459 7.51606ZM10.4874 1.96037C8.49756 -0.853021 4.41542 -1.3615 1.93489 1.25155L7.73696 6.75937C6.5322 8.02849 4.6967 7.62733 3.95584 6.57983L10.4874 1.96037ZM1.9366 1.24976L0.021719 3.26443L5.82037 8.77585L7.73525 6.76117L1.9366 1.24976ZM0.0108331 3.27593C-0.927805 4.27135 -1.76459 5.78094 -1.66199 7.64163L6.32588 7.20115C6.37482 8.08864 5.96491 8.6226 5.83126 8.76435L0.0108331 3.27593ZM-1.66245 7.63304C-1.51674 10.3831 -0.361125 15.4949 5.05111 21.1914L10.8508 15.6811C6.80817 11.4262 6.37577 8.14269 6.32634 7.20974L-1.66245 7.63304ZM5.05043 21.1907C10.9809 27.4357 16.8311 27.8855 19.6194 27.6096L18.8317 19.6485C18.1196 19.719 14.8345 19.8761 10.8515 15.6818L5.05043 21.1907ZM19.6054 27.611C21.1955 27.4593 22.3902 26.6185 23.1685 25.7985L17.3658 20.2913C17.4636 20.1884 17.946 19.733 18.8457 19.6471L19.6054 27.611ZM23.1673 25.7998L24.8992 23.9766L19.099 18.4668L17.3671 20.29L23.1673 25.7998ZM24.8983 23.9776C27.4799 21.2616 26.7316 16.8058 23.5438 14.9733L19.5568 21.909C18.8896 21.5255 18.5606 20.9006 18.4775 20.3595C18.3968 19.8348 18.5065 19.0901 19.0999 18.4658L24.8983 23.9776ZM23.5464 14.9748L21.2168 13.6333L17.2246 20.566L19.5542 21.9075L23.5464 14.9748ZM21.2146 13.632C19.0254 12.3733 16.2606 12.7265 14.4901 14.5935L20.2948 20.0985C19.4633 20.9752 18.1646 21.1065 17.2269 20.5673L21.2146 13.632ZM14.4926 14.5908L13.9364 15.1762L19.7361 20.6865L20.2923 20.1012L14.4926 14.5908ZM19.5921 15.0322L18.9493 14.4212L13.4376 20.2196L14.0804 20.8306L19.5921 15.0322ZM13.4405 20.2223C13.7635 20.5287 13.918 20.6756 13.9914 20.7458C14.0367 20.7891 14.0281 20.7813 14.0056 20.759C13.9977 20.7511 13.9774 20.7308 13.9511 20.7035C13.9345 20.6863 13.8666 20.6159 13.7851 20.52C13.7446 20.4722 13.6629 20.3741 13.5696 20.2422C13.4978 20.1408 13.2918 19.8444 13.1212 19.4179C12.9463 18.9806 12.6523 18.0151 12.9883 16.8361C13.1507 16.2664 13.4105 15.8323 13.6338 15.5343C13.7396 15.393 13.8351 15.2852 13.8975 15.2176C13.9561 15.1542 14.0055 15.1052 14.0068 15.104L19.6633 20.7612C19.6645 20.7599 19.714 20.7109 19.7726 20.6475C19.835 20.58 19.9306 20.4721 20.0364 20.3308C20.2597 20.0327 20.5196 19.5986 20.6819 19.0288C21.018 17.8497 20.724 16.884 20.5489 16.4465C20.3783 16.0199 20.1721 15.7231 20.1 15.6213C20.0065 15.489 19.9244 15.3903 19.8833 15.3419C19.8007 15.2446 19.731 15.1723 19.7116 15.1523C19.6826 15.1222 19.6586 15.0982 19.6457 15.0854C19.6035 15.0434 19.555 14.997 19.5201 14.9636C19.4331 14.8804 19.2663 14.7219 18.9464 14.4185L13.4405 20.2223ZM14.0068 15.104L14.0055 15.1052L19.6621 20.7624L19.6633 20.7612L14.0068 15.104ZM13.6338 15.5338L13.6302 15.5387L20.0301 20.3387L20.0338 20.3339L13.6338 15.5338ZM14.2272 14.9014L14.2187 14.9088L19.4245 20.9833L19.4331 20.9759L14.2272 14.9014ZM13.9933 15.1174L13.9763 15.1345L19.6328 20.7917L19.6499 20.7746L13.9933 15.1174ZM14.0015 15.1095C14.117 14.996 14.2423 14.8929 14.3759 14.8012L18.9015 21.3981C19.1534 21.2253 19.3897 21.0307 19.6076 20.8167L14.0015 15.1095ZM14.345 14.8226C14.457 14.7442 14.6051 14.6569 14.7855 14.586L17.7088 22.0328C18.2185 21.8327 18.6252 21.5917 18.9323 21.3767L14.345 14.8226ZM14.778 14.589C15.1299 14.45 15.4157 14.4528 15.5556 14.4755L14.2774 22.3727C15.5174 22.5734 16.6911 22.4347 17.7163 22.0299L14.778 14.589ZM15.555 14.4754C15.7539 14.5075 15.1031 14.4737 13.4873 12.7721L7.68605 18.2808C9.78292 20.489 11.9373 21.9943 14.2779 22.3728L15.555 14.4754ZM13.4862 12.7709C11.8867 11.0879 11.7976 10.3582 11.8092 10.4379L3.89268 11.5904C4.22139 13.8482 5.55933 16.043 7.68717 18.282L13.4862 12.7709ZM11.8081 10.4301C11.8188 10.5025 11.829 10.7229 11.7213 11.0253L4.18555 8.33955C3.83871 9.3127 3.7197 10.4185 3.89382 11.5982L11.8081 10.4301ZM11.723 11.0205C11.6525 11.2189 11.5521 11.4054 11.4251 11.5733L5.0427 6.75001C4.67662 7.23443 4.38697 7.77212 4.18385 8.34433L11.723 11.0205ZM11.3408 11.6811L11.3774 11.636L5.16366 6.59713L5.12707 6.64226L11.3408 11.6811ZM11.1946 11.8459L11.2117 11.8276L5.36348 6.36887L5.3464 6.38716L11.1946 11.8459ZM11.3246 11.7015L11.3319 11.6929L5.25793 6.4865L5.25061 6.49503L11.3246 11.7015ZM11.1227 11.9187L11.1264 11.9151L5.47074 6.25703L5.46708 6.26069L11.1227 11.9187ZM10.0879 12.6635L10.0904 12.6623L6.51162 5.5074L6.50918 5.50862L10.0879 12.6635ZM8.301 9.08484C12.301 9.08484 12.2455 9.74873 12.0806 10.3942C11.9756 10.6652 11.5075 11.4762 11.0799 11.9619C10.0691 12.9382 8.90191 13.0816 8.32301 13.0848C7.74153 13.088 7.29695 12.9622 7.10053 12.9004C6.86968 12.8278 6.69096 12.7484 6.58571 12.6984C6.23984 12.5342 5.99299 12.3519 5.97501 12.339C5.84563 12.2466 5.74937 12.1653 5.73773 12.1556C5.68259 12.1096 5.64066 12.0719 5.63491 12.0667C5.6206 12.0539 5.60981 12.0441 5.6053 12.04C5.59996 12.0351 5.59633 12.0317 5.59522 12.0307C5.59312 12.0287 5.60387 12.0387 5.64284 12.0753C5.71809 12.146 5.87591 12.2949 6.20011 12.6021L11.7021 6.79446C11.3762 6.48573 11.209 6.32792 11.1217 6.2459C11.0794 6.20615 11.0495 6.17821 11.0271 6.15748C11.0187 6.14974 10.9964 6.12911 10.9696 6.10514C10.9626 6.09886 10.9201 6.06062 10.8646 6.01433C10.8528 6.00448 10.7565 5.92318 10.627 5.83067C10.609 5.81781 10.3622 5.63547 10.0163 5.47129C9.9779 5.45306 9.26095 5.0795 8.279 5.0849C7.70009 5.08809 6.5329 5.23144 5.5221 6.20775C5.09454 6.69349 4.62644 7.50448 4.52138 7.77548C4.35648 8.42095 4.301 9.08484 8.301 9.08484ZM11.7048 6.79704L11.0559 6.18117L5.54853 11.9836L6.19739 12.5995L11.7048 6.79704ZM11.2016 11.8381L11.5516 11.4698L5.7529 5.95845L5.40285 6.32675L11.2016 11.8381ZM11.5538 11.4675C13.4777 9.44005 13.5847 6.34177 12.0258 4.13671L5.49336 8.7548C4.96391 8.00588 4.91236 6.84422 5.75072 5.96074L11.5538 11.4675ZM12.0259 4.13678L10.4879 1.96112L3.95531 6.57908L5.49332 8.75474L12.0259 4.13678Z" fill="#000000" mask="url(#path-1-inside-1_640_3498)"/>
<path d="M13.9289 1.26759C13.9681 1.0282 14.1007 0.814135 14.2975 0.67238C14.4944 0.530625 14.7395 0.472759 14.979 0.511479C15.0095 0.517577 15.1095 0.53587 15.1619 0.548065C15.2656 0.570017 15.4108 0.606603 15.5913 0.657824C15.9535 0.763924 16.4597 0.938318 17.0671 1.21637C18.2819 1.7737 19.8979 2.74811 21.5762 4.42498C23.2545 6.10307 24.229 7.72017 24.7864 8.93484C25.0644 9.54217 25.2376 10.0471 25.3437 10.4105C25.3972 10.5931 25.4432 10.7778 25.4816 10.9641L25.4877 11.002C25.5278 11.2435 25.4714 11.4911 25.3307 11.6914C25.1899 11.8917 24.976 12.0287 24.7351 12.0727C24.4963 12.1115 24.2519 12.0541 24.0553 11.9131C23.8587 11.772 23.726 11.5589 23.6862 11.3203C23.6613 11.1855 23.6283 11.0523 23.5874 10.9215C23.4628 10.5026 23.3079 10.0934 23.1239 9.69705C22.6483 8.66044 21.7921 7.2287 20.2821 5.71891C18.7734 4.20912 17.3403 3.35422 16.3036 2.8786C15.9075 2.69472 15.4987 2.53984 15.0802 2.41518C14.9519 2.37898 14.8226 2.34644 14.6924 2.31762C14.4526 2.27802 14.238 2.14571 14.0949 1.94925C13.9518 1.75279 13.8917 1.50795 13.9276 1.26759H13.9289Z" fill="#000000"/>
<path fill-rule="evenodd" clip-rule="evenodd" d="M14.2043 5.475C14.2372 5.35943 14.2925 5.25148 14.3671 5.1573C14.4418 5.06313 14.5342 4.98458 14.6392 4.92614C14.7442 4.8677 14.8597 4.83052 14.9791 4.81672C15.0984 4.80292 15.2194 4.81278 15.3349 4.84572L15.0837 5.72501L15.3361 4.84694H15.3386L15.3435 4.84816L15.352 4.8506L15.3764 4.85913C15.4726 4.89135 15.5674 4.92756 15.6606 4.96767C15.8387 5.04328 16.0814 5.16036 16.3802 5.33719C16.9778 5.69086 17.7913 6.27624 18.7488 7.2348C19.7062 8.19213 20.2941 9.00679 20.6466 9.60314C20.8234 9.90193 20.9405 10.1446 21.0174 10.3227C21.0575 10.4158 21.0937 10.5106 21.1259 10.6068L21.1332 10.6312L21.1357 10.641L21.1369 10.6446V10.6471L20.2587 10.8995L21.1381 10.6483C21.2064 10.8812 21.1793 11.1316 21.0629 11.3445C20.9465 11.5575 20.7502 11.7154 20.5173 11.7837C20.2844 11.8519 20.0339 11.8249 19.821 11.7085C19.608 11.592 19.45 11.3958 19.3818 11.1629L19.3781 11.1507C19.2924 10.9384 19.1904 10.7329 19.0732 10.5361C18.8 10.0763 18.3097 9.38119 17.4559 8.52751C16.6022 7.67383 15.907 7.18358 15.4484 6.91162C15.2515 6.79443 15.046 6.6925 14.8336 6.60673L14.8214 6.60186C14.5908 6.53285 14.3967 6.37572 14.2812 6.16455C14.1656 5.95338 14.138 5.7064 14.2043 5.475Z" fill="#000000"/>
</svg>
