<svg width="81" height="80" viewBox="0 0 81 80" fill="none" xmlns="http://www.w3.org/2000/svg">
<path d="M67.8332 12.8C67.8866 13.7414 67.8599 14.6694 67.7666 15.5774C68.2466 16.0947 68.3932 16.7974 68.2199 17.6334C68.0599 18.38 67.5932 19.1934 66.8332 19.82C66.4332 20.9934 65.9132 22.1134 65.3266 23.14C68.1666 22.4467 70.0732 20.38 70.5666 18.1534C70.8999 16.6267 70.5532 14.952 69.3799 13.7974C68.9532 13.3787 68.4332 13.044 67.8332 12.8ZM39.8332 12.908C39.3399 13.1387 38.9132 13.4347 38.5532 13.792C37.3799 14.9467 37.0332 16.6227 37.3666 18.1534C37.8732 20.42 39.8332 22.5 42.7399 23.18C42.1266 22.14 41.5932 21.0334 41.1666 19.8734C40.3666 19.2334 39.8866 18.4067 39.7132 17.6334C39.5532 16.8587 39.6599 16.1987 40.0599 15.6947C39.9266 14.776 39.8466 13.844 39.8332 12.908ZM42.2866 13.94C42.5532 17.512 43.9666 21.06 45.9932 23.7534C48.2332 26.7534 51.1666 28.6067 53.8332 28.6067C56.5399 28.6067 59.5932 26.8734 61.8732 23.98C63.9666 21.3534 65.3799 17.7934 65.4466 13.94H42.2866ZM51.8732 30.78C51.3132 31.74 50.9532 32.8867 50.8199 33.6334L53.8332 36.6467L56.8466 33.6334C56.7132 32.8867 56.3532 31.7534 55.8066 30.7934C55.1532 30.94 54.4999 31.0067 53.8332 31.0067C53.1666 31.0067 52.5132 30.9267 51.8732 30.78ZM26.8332 31.2867C26.4999 32.6467 26.8999 33.98 27.6732 35.34C28.6332 37.02 30.1532 38.5534 31.2199 39.62L31.5666 39.98V40.4734C31.5666 41.54 31.5666 42.5667 31.5532 43.54H37.7132C37.6999 42.5667 37.6999 41.54 37.6999 40.4734V39.98L38.0466 39.62C39.1132 38.5534 40.6332 37.02 41.5932 35.34C42.3666 33.98 42.7666 32.6467 42.4332 31.2867C36.8199 32.98 32.4466 32.98 26.8332 31.2867ZM52.9666 39.1667L51.0066 49.94H56.6599L54.6999 39.1667L53.8332 40.0334L52.9666 39.1667ZM10.4679 41.6734C10.6692 42.3667 10.9826 43.1667 11.3959 43.86C11.7466 44.4467 12.1546 44.9534 12.5186 45.26C12.8839 45.58 13.1666 45.6734 13.2999 45.6734H14.8372L12.7039 54.2067H20.2999L18.1666 45.6734H19.6999C19.8332 45.6734 20.1132 45.58 20.4866 45.26C20.8466 44.9534 21.2466 44.4467 21.6066 43.86C22.0199 43.1667 22.3266 42.3667 22.5266 41.6734H10.4679ZM31.4999 45.94C31.4732 46.58 31.4332 47.1934 31.3932 47.8067H37.8732C37.8332 47.1934 37.7932 46.58 37.7666 45.94H31.4999ZM31.0999 50.2067C30.8866 51.5934 30.5532 52.9134 30.0599 54.2067H39.2066C38.7132 52.9134 38.3799 51.5934 38.1666 50.2067H31.0999ZM48.6332 52.34V54.2067H59.0332V52.34H48.6332ZM6.8999 56.34V58.74H70.8999V56.34H6.8999ZM14.2332 61.0067V67.4067H16.6332V61.0067H14.2332ZM61.1666 61.0067V67.4067H63.5666V61.0067H61.1666Z" fill="#D22A2F"/>
</svg>
