<svg width="24" height="24" viewBox="0 0 24 24" fill="none" xmlns="http://www.w3.org/2000/svg">
<path d="M21.4073 19.7524L16.9969 15.3419C18.0587 13.9284 18.6319 12.2077 18.63 10.4398C18.63 5.92382 14.9559 2.24976 10.44 2.24976C5.92406 2.24976 2.25 5.92382 2.25 10.4398C2.25 14.9557 5.92406 18.6298 10.44 18.6298C12.208 18.6317 13.9286 18.0585 15.3422 16.9966L19.7527 21.4071C19.9759 21.6067 20.2671 21.7132 20.5664 21.7048C20.8658 21.6965 21.1505 21.5738 21.3623 21.3621C21.574 21.1503 21.6967 20.8655 21.7051 20.5662C21.7134 20.2669 21.6069 19.9757 21.4073 19.7524ZM4.59 10.4398C4.59 9.28274 4.9331 8.1517 5.5759 7.18967C6.21871 6.22764 7.13235 5.47783 8.2013 5.03506C9.27025 4.59229 10.4465 4.47644 11.5813 4.70216C12.7161 4.92789 13.7584 5.48504 14.5766 6.30318C15.3947 7.12132 15.9519 8.16369 16.1776 9.29848C16.4033 10.4333 16.2875 11.6095 15.8447 12.6785C15.4019 13.7474 14.6521 14.661 13.6901 15.3039C12.7281 15.9467 11.597 16.2898 10.44 16.2898C8.88905 16.2879 7.40216 15.671 6.30548 14.5743C5.2088 13.4776 4.59186 11.9907 4.59 10.4398Z" fill="#A5ABB3"/>
</svg>
