<svg width="80" height="81" viewBox="0 0 80 81" fill="none" xmlns="http://www.w3.org/2000/svg">
<rect y="0.563232" width="80" height="80" rx="40" fill="#F29E23"/>
<path d="M46.2705 29.0947V32.8245L39.2947 39.8003C38.8815 40.1996 38.8699 40.8579 39.2689 41.2712C39.6682 41.6841 40.3265 41.6956 40.7399 41.2967C40.7484 41.2884 40.7569 41.2798 40.7652 41.2712L47.7414 34.2951H51.4709C51.7468 34.2951 52.0113 34.1857 52.2062 33.9905L58.4467 27.75C58.853 27.3438 58.853 26.6851 58.4467 26.2788C58.2515 26.084 57.9871 25.9745 57.7114 25.9742H54.5912V22.8541C54.591 22.2797 54.1253 21.8143 53.5508 21.8143C53.2751 21.8145 53.0106 21.924 52.8155 22.1189L46.5751 28.3594C46.3801 28.5544 46.2705 28.8189 46.2705 29.0947Z" fill="white"/>
<path d="M43.2774 32.8761C39.0453 31.0806 34.1593 33.0563 32.3639 37.2884C30.5684 41.5204 32.5441 46.4068 36.7761 48.2018C41.0082 49.9973 45.8945 48.022 47.6897 43.7896C48.126 42.7614 48.3508 41.6559 48.3508 40.539C48.3508 39.422 48.126 38.3165 47.6897 37.2884L42.2363 42.7418C41.0353 43.9777 39.0599 44.0064 37.8239 42.8057C36.588 41.6047 36.5593 39.6293 37.76 38.3933C37.781 38.3717 37.8023 38.3508 37.8239 38.3298L43.2774 32.8761Z" fill="white"/>
<path d="M58.3798 30.7588L55.2676 33.8707C58.9654 42.303 55.1274 52.1363 46.6951 55.834C38.263 59.5317 28.4297 55.6935 24.7317 47.2614C21.034 38.8292 24.8722 28.9958 33.3046 25.2982C35.4154 24.3725 37.6951 23.8946 39.9999 23.8946C42.3047 23.8946 44.5844 24.3725 46.6951 25.2982L49.8067 22.1857C39.6569 16.7709 27.0396 20.6092 21.625 30.7588C16.2099 40.9081 20.0482 53.5258 30.1978 58.9408C40.3475 64.3554 52.9648 60.5172 58.3798 50.3676C61.6486 44.2399 61.6486 36.8864 58.3798 30.7588Z" fill="white"/>
<path d="M44.19 29.0946C44.1886 28.2726 44.5137 27.4837 45.0938 26.9012C37.5311 24.0719 29.1071 27.9089 26.2776 35.4716C23.4483 43.0343 27.2852 51.4583 34.8479 54.2878C42.4105 57.1171 50.8346 53.2802 53.6642 45.7175C54.9001 42.414 54.9001 38.7751 53.6642 35.4716C53.0818 36.0518 52.2928 36.3769 51.4707 36.3753H49.549C51.8681 41.6542 49.4689 47.8133 44.1901 50.1324C38.9115 52.4517 32.7521 50.0523 30.433 44.7737C28.1137 39.4948 30.5131 33.3357 35.7917 31.0164C37.1153 30.4349 38.5452 30.1347 39.9909 30.1347C41.4366 30.1347 42.8665 30.4349 44.1901 31.0164L44.19 29.0946Z" fill="white"/>
</svg>
